<?xml version="1.0" encoding="UTF-8"?>
<svg version="1.1" xmlns="http://www.w3.org/2000/svg" width="512" height="512">
<path d="M0 0 C1.90419873 -0.00445668 1.90419873 -0.00445668 3.84686613 -0.0090034 C7.35938659 -0.01704066 10.87188658 -0.01886114 14.38441515 -0.01960087 C18.17739435 -0.02145719 21.97036308 -0.02900749 25.76333618 -0.03573608 C34.05291919 -0.04929738 42.34249736 -0.05534089 50.63208961 -0.05974674 C55.81315335 -0.0625133 60.99421523 -0.06675145 66.17527771 -0.07125092 C80.53398776 -0.08344148 94.89269633 -0.09374071 109.25141144 -0.09712601 C110.16978687 -0.09734557 111.0881623 -0.09756514 112.03436729 -0.09779136 C112.95488248 -0.09800964 113.87539766 -0.09822791 114.82380724 -0.09845281 C116.68897533 -0.09889626 118.55414343 -0.09934283 120.41931152 -0.09979248 C121.34449017 -0.10001391 122.26966881 -0.10023534 123.22288316 -0.10046348 C138.2017355 -0.1044084 153.1805391 -0.12185402 168.15937263 -0.145152 C183.55608756 -0.16890562 198.95277808 -0.18132971 214.34951162 -0.18249393 C222.98680369 -0.18340852 231.62403226 -0.18910609 240.26130676 -0.20731354 C247.61871959 -0.22276886 254.9760493 -0.22780317 262.33347529 -0.21957543 C266.08218813 -0.21568785 269.83073389 -0.21650499 273.57942581 -0.23063278 C302.30000672 -0.33273526 302.30000672 -0.33273526 314.41442871 3.14044189 C315.16928307 3.33771252 315.92413742 3.53498314 316.70186615 3.73823166 C345.41489337 11.66433901 370.09106937 31.68529428 385.21862793 57.14483643 C394.99372169 74.44058002 399.56933427 92.97300331 399.55487061 112.72601318 C399.55932729 114.63021192 399.55932729 114.63021192 399.56387401 116.57287931 C399.57191127 120.08539978 399.57373175 123.59789977 399.57447147 127.11042833 C399.57632779 130.90340754 399.58387809 134.69637626 399.59060669 138.48934937 C399.60416798 146.77893238 399.6102115 155.06851054 399.61461735 163.3581028 C399.61738391 168.53916653 399.62162205 173.72022841 399.62612152 178.90129089 C399.63831208 193.26000094 399.64861131 207.61870951 399.65199661 221.97742462 C399.65221618 222.89580005 399.65243574 223.81417549 399.65266196 224.76038048 C399.65288024 225.68089566 399.65309852 226.60141084 399.65332341 227.54982042 C399.65376687 229.41498852 399.65421343 231.28015661 399.65466309 233.14532471 C399.65488452 234.07050335 399.65510595 234.99568199 399.65533409 235.94889635 C399.659279 250.92774869 399.67672462 265.90655229 399.70002261 280.88538581 C399.72377623 296.28210074 399.73620031 311.67879126 399.73736453 327.07552481 C399.73827912 335.71281687 399.74397669 344.35004544 399.76218414 352.98731995 C399.77763946 360.34473277 399.78267378 367.70206249 399.77444604 375.05948848 C399.77055846 378.80820132 399.7713756 382.55674707 399.78550339 386.305439 C399.88760587 415.02601991 399.88760587 415.02601991 396.41442871 427.14044189 C396.11852278 428.27272343 396.11852278 428.27272343 395.81663895 429.42787933 C387.8905316 458.14090655 367.86957632 482.81708256 342.41003418 497.94464111 C325.11429059 507.71973487 306.5818673 512.29534745 286.82885742 512.28088379 C284.92465869 512.28534047 284.92465869 512.28534047 282.98199129 512.28988719 C279.46947083 512.29792445 275.95697084 512.29974493 272.44444227 512.30048466 C268.65146307 512.30234097 264.85849435 512.30989128 261.06552124 512.31661987 C252.77593823 512.33018117 244.48636007 512.33622468 236.19676781 512.34063053 C231.01570407 512.34339709 225.83464219 512.34763524 220.65357971 512.3521347 C206.29486966 512.36432527 191.9361611 512.3746245 177.57744598 512.3780098 C176.65907055 512.37822936 175.74069512 512.37844893 174.79449013 512.37867515 C173.87397495 512.37889343 172.95345976 512.3791117 172.00505018 512.3793366 C170.13988209 512.37978005 168.27471399 512.38022662 166.4095459 512.38067627 C165.48436726 512.3808977 164.55918862 512.38111913 163.60597426 512.38134727 C148.62712192 512.38529218 133.64831832 512.40273781 118.66948479 512.42603579 C103.27276986 512.44978941 87.87607934 512.4622135 72.4793458 512.46337771 C63.84205374 512.4642923 55.20482516 512.46998988 46.56755066 512.48819733 C39.21013783 512.50365264 31.85280812 512.50868696 24.49538213 512.50045922 C20.74666929 512.49657164 16.99812353 512.49738878 13.24943161 512.51151657 C-15.4711493 512.61361905 -15.4711493 512.61361905 -27.58557129 509.14044189 C-28.71785282 508.84453596 -28.71785282 508.84453596 -29.87300873 508.54265213 C-58.58603595 500.61654478 -83.26221195 480.5955895 -98.38977051 455.13604736 C-108.16486427 437.84030377 -112.74047684 419.30788048 -112.72601318 399.55487061 C-112.72898431 398.28540478 -112.73195543 397.01593896 -112.73501658 395.70800447 C-112.74305385 392.19548401 -112.74487433 388.68298402 -112.74561405 385.17045546 C-112.74747037 381.37747625 -112.75502067 377.58450753 -112.76174927 373.79153442 C-112.77531056 365.50195141 -112.78135408 357.21237325 -112.78575993 348.92278099 C-112.78852649 343.74171726 -112.79276463 338.56065538 -112.7972641 333.3795929 C-112.80945466 319.02088285 -112.81975389 304.66217428 -112.82313919 290.30345917 C-112.82335876 289.38508374 -112.82357832 288.4667083 -112.82380454 287.52050331 C-112.82402282 286.59998813 -112.8242411 285.67947295 -112.82446599 284.73106337 C-112.82490945 282.86589527 -112.82535601 281.00072718 -112.82580566 279.13555908 C-112.82602709 278.21038044 -112.82624852 277.2852018 -112.82647666 276.33198744 C-112.83042158 261.3531351 -112.8478672 246.3743315 -112.87116519 231.39549798 C-112.89491881 215.99878305 -112.90734289 200.60209253 -112.90850711 185.20535898 C-112.9094217 176.56806692 -112.91511927 167.93083835 -112.93332672 159.29356384 C-112.94878204 151.93615102 -112.95381636 144.5788213 -112.94558862 137.22139531 C-112.94170104 133.47268247 -112.94251817 129.72413672 -112.95664597 125.97544479 C-113.05874845 97.25486388 -113.05874845 97.25486388 -109.58557129 85.14044189 C-109.38830067 84.38558754 -109.19103004 83.63073318 -108.98778152 82.85300446 C-101.06167418 54.13997724 -81.0407189 29.46380123 -55.58117676 14.33624268 C-38.28543317 4.56114892 -19.75300987 -0.01446366 0 0 Z " fill="#001B94" transform="translate(112.5855712890625,-0.14044189453125)"/>
<path d="M0 0 C3.12578143 1.6720747 5.39281175 3.7856235 7 7 C7.42766537 11.18618599 7.44703752 14.88240621 5.875 18.8125 C2.98497124 22.18420022 0.39804671 24.78430268 -4.21484375 25.19921875 C-8.44108735 24.95309807 -10.55342616 24.35155813 -13.9375 21.6875 C-16.68640695 18.10559095 -17.82166884 16.18144394 -18.5 11.6875 C-17.83398123 6.77561156 -15.58855833 4.29106127 -12 1 C-8.27533151 -0.86233425 -4.05504687 -0.57130829 0 0 Z " fill="#F8F9FC" transform="translate(310,153)"/>
<path d="M0 0 C3.78580423 2.03850997 7.05061257 4.10122513 9 8 C9.53984503 13.57839862 9.22031416 17.22505142 6 22 C2.43756869 25.14332174 -1.09679535 25.63107472 -5.7109375 25.4921875 C-9.72326905 24.62946775 -12.44515635 22.12512125 -15 19 C-16.20643566 15.38069302 -16.32268559 12.80768995 -16 9 C-12.32317126 1.9187002 -8.0382172 -0.98714948 0 0 Z " fill="#F9FAFC" transform="translate(151,310)"/>
<path d="M0 0 C3.78580423 2.03850997 7.05061257 4.10122513 9 8 C9.53984503 13.57839862 9.22031416 17.22505142 6 22 C2.43756869 25.14332174 -1.09679535 25.63107472 -5.7109375 25.4921875 C-9.72326905 24.62946775 -12.44515635 22.12512125 -15 19 C-16.20643566 15.38069302 -16.32268559 12.80768995 -16 9 C-12.32317126 1.9187002 -8.0382172 -0.98714948 0 0 Z " fill="#F9FAFC" transform="translate(110,310)"/>
<path d="M0 0 C3.78171013 2.03630545 7.09528802 4.08475871 9 8 C9.73940087 12.77415625 9.45664981 16.10300929 7.25 20.4375 C4.65393889 23.39412515 2.73176435 24.70087707 -1.1484375 25.37109375 C-5.28770068 25.49454546 -8.12211901 25.39741725 -11.4375 22.75 C-14.81439385 19.12601636 -15.82874435 17.54130086 -16.375 12.625 C-15.92515417 8.27649031 -14.79790424 6.32723747 -12 3 C-8.07324125 -0.18385844 -4.98824428 -0.6125914 0 0 Z " fill="#F9FAFC" transform="translate(350,194)"/>
<path d="M0 0 C3.11116179 1.71239349 5.38689318 3.77378636 7 7 C7.42766537 11.18618599 7.44703752 14.88240621 5.875 18.8125 C2.98497124 22.18420022 0.39804671 24.78430268 -4.21484375 25.19921875 C-8.44108735 24.95309807 -10.55342616 24.35155813 -13.9375 21.6875 C-16.7857003 17.9762087 -18.40441589 15.37846477 -18.0625 10.625 C-17.54121102 7.04113826 -16.64028552 4.99704648 -14.0625 2.4375 C-9.67432373 -0.7949426 -5.25122021 -1.18325192 0 0 Z " fill="#F8F9FC" transform="translate(269,153)"/>
<path d="M0 0 C3.11116179 1.71239349 5.38689318 3.77378636 7 7 C7.42766537 11.18618599 7.44703752 14.88240621 5.875 18.8125 C2.98497124 22.18420022 0.39804671 24.78430268 -4.21484375 25.19921875 C-8.44108735 24.95309807 -10.55342616 24.35155813 -13.9375 21.6875 C-16.7857003 17.9762087 -18.40441589 15.37846477 -18.0625 10.625 C-17.54121102 7.04113826 -16.64028552 4.99704648 -14.0625 2.4375 C-9.67432373 -0.7949426 -5.25122021 -1.18325192 0 0 Z " fill="#F8F9FC" transform="translate(228,153)"/>
<path d="M0 0 C4.62170982 1.72181346 7.51550538 3.69991315 10 8 C10.72912122 12.03883999 10.4237502 15.09196386 8.6875 18.8125 C6.21886433 22.01258327 4.89329386 23.70223538 1 25 C-5.70527386 25.78228195 -5.70527386 25.78228195 -9.04296875 23.765625 C-13.37131306 20.16015881 -14.80489394 17.98357832 -15.375 12.1875 C-15.34474442 8.90174372 -14.77009012 7.17038793 -12.6875 4.625 C-8.32590922 0.36484157 -6.05681685 -0.51328956 0 0 Z " fill="#FAFAFD" transform="translate(192,352)"/>
<path d="M0 0 C3.43761572 2.12108204 5.77560839 4.1042085 7 8 C7.45599783 13.01597611 7.12987123 16.00671602 4 20 C1.76626666 22.43082746 0.15337617 23.81126572 -3.1484375 24.3515625 C-7.84371509 24.52315072 -11.35424002 24.21684704 -15 21 C-17.63824342 17.08812183 -18.60013158 13.61343427 -18.421875 8.9609375 C-17.6380264 5.31749306 -15.67324109 3.55173013 -13 1 C-8.63759734 -1.6983934 -4.84522333 -1.20265365 0 0 Z " fill="#FAFBFD" transform="translate(253,253)"/>
<path d="M0 0 C3.43615111 2.12017834 5.80717883 4.09622164 7 8 C7.86284183 14.57916897 7.86284183 14.57916897 5.76171875 18.0390625 C3.27934709 21.03269185 1.74958615 22.75013795 -2 24 C-10.835 24.57 -10.835 24.57 -15 21 C-17.63824342 17.08812183 -18.60013158 13.61343427 -18.421875 8.9609375 C-17.6380264 5.31749306 -15.67324109 3.55173013 -13 1 C-8.63759734 -1.6983934 -4.84522333 -1.20265365 0 0 Z " fill="#FAFAFD" transform="translate(282,224)"/>
<path d="M0 0 C3.12001504 1.68818449 5.39047471 3.78094941 7 7 C7.51093875 11.05831354 7.91678528 15.19576657 6.0234375 18.921875 C3.72352962 21.77206759 1.36547747 23.64254905 -2 25 C-5.17964157 25.32952649 -7.9659482 25.00785112 -11 24 C-14.75436095 20.88434776 -17.75356839 17.16859814 -18.3125 12.25 C-17.8541314 7.48296652 -15.69537635 4.51862435 -12.1640625 1.35546875 C-8.34328798 -1.03768785 -4.34459741 -0.75260743 0 0 Z " fill="#F9FAFC" transform="translate(187,153)"/>
<path d="M0 0 C3.12001504 1.68818449 5.39047471 3.78094941 7 7 C7.51093875 11.05831354 7.91678528 15.19576657 6.0234375 18.921875 C2.82383199 22.88703029 0.08894374 24.72752908 -4.875 25.375 C-10.18011457 24.73838625 -13.04095734 22.16094638 -16.375 18.125 C-18.21019695 14.59577511 -18.651794 12.91076402 -18 9 C-13.62738301 1.03559048 -8.93787047 -1.54829252 0 0 Z " fill="#F9FAFC" transform="translate(352,153)"/>
<path d="M0 0 C3.12001504 1.68818449 5.39047471 3.78094941 7 7 C7.51093875 11.05831354 7.91678528 15.19576657 6.0234375 18.921875 C2.82383199 22.88703029 0.08894374 24.72752908 -4.875 25.375 C-10.18011457 24.73838625 -13.04095734 22.16094638 -16.375 18.125 C-18.21019695 14.59577511 -18.651794 12.91076402 -18 9 C-13.62738301 1.03559048 -8.93787047 -1.54829252 0 0 Z " fill="#F9FAFC" transform="translate(381,124)"/>
<path d="M0 0 C3.29110633 2.10070617 4.8333853 3.75007795 7 7 C7.4353464 12.39829539 7.41010171 15.57949778 4 20 C1.09478883 23.38941303 -1.28280182 23.91632688 -5.75 24.4375 C-10.22242033 24.4044322 -12.45245693 22.55752835 -15.65234375 19.60546875 C-18.25139521 16.50920745 -18.39501004 12.99840829 -18.3515625 9.06640625 C-17.71315462 5.31398662 -15.72210538 3.59837332 -13 1 C-8.6420065 -1.69566608 -4.84052715 -1.21013179 0 0 Z " fill="#FBFBFD" transform="translate(195,394)"/>
<path d="M0 0 C3.00685978 1.79132072 4.52657334 3.24682123 6.375 6.1875 C7.30118795 10.3553458 7.32631144 13.91352692 6 18 C3.59638187 21.49487502 0.89990865 23.61094021 -3.2890625 24.46875 C-7.90083814 24.65383799 -11.44284711 24.13866432 -15 21 C-17.63824342 17.08812183 -18.60013158 13.61343427 -18.421875 8.9609375 C-17.6380264 5.31749306 -15.67324109 3.55173013 -13 1 C-8.63317982 -1.70112588 -4.84990364 -1.19515482 0 0 Z " fill="#FBFBFD" transform="translate(224,282)"/>
<path d="M0 0 C3.43761572 2.12108204 5.77560839 4.1042085 7 8 C7.46931049 12.2237944 7.28387834 14.45327135 5.3125 18.25 C2.54131763 21.54546012 0.45309777 23.64101008 -3.921875 24.28125 C-8.39638862 24.48310776 -11.49302023 24.00598266 -15 21 C-17.63824342 17.08812183 -18.60013158 13.61343427 -18.421875 8.9609375 C-17.6380264 5.31749306 -15.67324109 3.55173013 -13 1 C-8.63759734 -1.6983934 -4.84522333 -1.20265365 0 0 Z " fill="#FBFBFD" transform="translate(311,195)"/>
<path d="M0 0 C3.00685978 1.79132072 4.52657334 3.24682123 6.375 6.1875 C7.28714788 10.29216545 7.15950553 13.94906928 6 18 C3.80176185 20.70552388 2.10443333 22.44778333 -1 24 C-5.21226823 24.43032996 -8.91059104 24.42629046 -12.875 22.875 C-15.68985619 20.39130336 -16.80619986 18.58140041 -18 15 C-18.20284449 10.39948705 -17.61641015 6.99900955 -15.1875 3.0625 C-10.35355965 -1.49521518 -6.2615951 -1.54303594 0 0 Z " fill="#FBFBFD" transform="translate(195,311)"/>
<path d="M0 0 C4.21500435 1.62115552 6.65064827 3.15192388 9 7 C9.79068903 11.36196782 10.01779368 15.98781019 7.98046875 20.015625 C5.35929871 23.2782294 3.08072316 24.7623144 -1.0859375 25.23828125 C-5.12225906 25.36915174 -7.39347675 25.361333 -10.9375 23.25 C-14.65240445 19.19737696 -15.55036878 15.73481135 -15.4609375 10.32421875 C-14.65549538 6.26287923 -12.05462619 3.65894922 -9 1 C-5.92805092 -0.53597454 -3.39755707 -0.2265038 0 0 Z " fill="#FAFAFD" transform="translate(409,93)"/>
<path d="M0 0 C4.08998175 1.80720124 6.66247347 4.19069751 9 8 C9.62819266 13.0255413 9.03320735 15.95572354 6 20 C3.24705395 23.21177039 0.96958591 23.86947882 -3.25 24.4375 C-8.1843364 23.86182742 -10.79803186 21.71753928 -14 18 C-15.23534045 14.29397865 -15.45528745 11.90246386 -15 8 C-10.91704021 1.64314568 -7.65816344 -0.51919752 0 0 Z " fill="#F9F9FC" transform="translate(348,318)"/>
<path d="M0 0 C4.08998175 1.80720124 6.66247347 4.19069751 9 8 C9.62819266 13.0255413 9.03320735 15.95572354 6 20 C3.24705395 23.21177039 0.96958591 23.86947882 -3.25 24.4375 C-8.1843364 23.86182742 -10.79803186 21.71753928 -14 18 C-15.23534045 14.29397865 -15.45528745 11.90246386 -15 8 C-10.91704021 1.64314568 -7.65816344 -0.51919752 0 0 Z " fill="#F9F9FC" transform="translate(348,277)"/>
<path d="M0 0 C4.08998175 1.80720124 6.66247347 4.19069751 9 8 C9.62819266 13.0255413 9.03320735 15.95572354 6 20 C3.24705395 23.21177039 0.96958591 23.86947882 -3.25 24.4375 C-8.1843364 23.86182742 -10.79803186 21.71753928 -14 18 C-15.23534045 14.29397865 -15.45528745 11.90246386 -15 8 C-10.91704021 1.64314568 -7.65816344 -0.51919752 0 0 Z " fill="#F9F9FC" transform="translate(348,235)"/>
</svg>
