<?xml version="1.0" encoding="UTF-8"?>
<svg version="1.1" xmlns="http://www.w3.org/2000/svg" width="1200" height="805">
<path d="M0 0 C396 0 792 0 1200 0 C1200 265.65 1200 531.3 1200 805 C804 805 408 805 0 805 C0 539.35 0 273.7 0 0 Z " fill="#44123B" transform="translate(0,0)"/>
<path d="M0 0 C3.30864165 1.66377409 5.82073469 3.85125495 8.484375 6.375 C9.00950684 6.86701904 9.53463867 7.35903809 10.07568359 7.8659668 C16.00096189 13.48370782 21.80473083 19.17408993 26.125 26.1484375 C30.02492455 33.07753972 30.02492455 33.07753972 36.390625 37.078125 C39.12158843 36.88502447 39.12158843 36.88502447 41.74487305 36.11352539 C50.73947804 33.8915017 60.33740208 34.21640922 69.546875 34.25 C70.62646484 34.24613281 71.70605469 34.24226563 72.81835938 34.23828125 C78.23087186 34.2449183 83.40388764 34.41688102 88.734375 35.375 C90.55287116 40.83048849 89.9762577 46.72582694 89.984375 52.4375 C89.98738113 53.45018951 89.98738113 53.45018951 89.990448 54.4833374 C89.99941259 66.78093308 88.85127179 78.45211323 85.734375 90.375 C86.75724609 90.70564453 86.75724609 90.70564453 87.80078125 91.04296875 C91.56617758 92.75268932 94.47364353 95.09517675 97.671875 97.6875 C98.26677734 98.16123047 98.86167969 98.63496094 99.47460938 99.12304688 C100.65639199 100.0671814 101.83405654 101.01649611 103.00732422 101.97119141 C104.16828225 102.91485958 105.33676671 103.84933591 106.51220703 104.77490234 C107.9565844 105.93014987 109.35072531 107.14767104 110.734375 108.375 C110.734375 109.035 110.734375 109.695 110.734375 110.375 C111.37375 110.643125 112.013125 110.91125 112.671875 111.1875 C114.734375 112.375 114.734375 112.375 115.734375 115.375 C116.394375 115.375 117.054375 115.375 117.734375 115.375 C119.53125 117.16796875 119.53125 117.16796875 121.484375 119.5625 C122.13921875 120.33980469 122.7940625 121.11710937 123.46875 121.91796875 C124.734375 124.375 124.734375 124.375 124.14453125 126.95703125 C122.75591504 129.33806569 121.42317809 130.99350885 119.421875 132.875 C118.48408203 133.7721875 118.48408203 133.7721875 117.52734375 134.6875 C116.93566406 135.244375 116.34398437 135.80125 115.734375 136.375 C114.909375 137.2 114.084375 138.025 113.234375 138.875 C112.409375 139.7 111.584375 140.525 110.734375 141.375 C110.29351563 141.86226562 109.85265625 142.34953125 109.3984375 142.8515625 C103.19059253 149.50057412 94.89259817 156.29588841 86.734375 160.375 C87.36764274 166.42040705 87.36764274 166.42040705 88.24609375 172.43359375 C89.58711342 180.812589 89.92126243 188.95954416 89.921875 197.4375 C89.92296265 199.06171875 89.92296265 199.06171875 89.92407227 200.71875 C89.88944823 205.70461069 89.79513646 210.47852512 88.734375 215.375 C74.01009631 218.75312187 56.61540971 217.25221617 41.95703125 214.03125 C37.86015655 213.19281264 37.86015655 213.19281264 33.734375 213.375 C32.20332772 214.85158299 32.20332772 214.85158299 31.109375 217 C28.38986296 221.4501106 25.39570969 225.53515693 22.171875 229.625 C21.71280762 230.21490723 21.25374023 230.80481445 20.78076172 231.41259766 C13.3482637 240.8370371 13.3482637 240.8370371 8.734375 242.375 C8.734375 243.035 8.734375 243.695 8.734375 244.375 C6.94140625 246.171875 6.94140625 246.171875 4.546875 248.125 C3.76957031 248.77984375 2.99226562 249.4346875 2.19140625 250.109375 C-0.265625 251.375 -0.265625 251.375 -2.65307617 250.69311523 C-5.46496978 249.27442412 -7.28468549 247.75834641 -9.5234375 245.55078125 C-10.30928223 244.77597412 -11.09512695 244.00116699 -11.90478516 243.20288086 C-12.7251123 242.37280518 -13.54543945 241.54272949 -14.390625 240.6875 C-15.23286621 239.84131104 -16.07510742 238.99512207 -16.94287109 238.12329102 C-24.1415444 230.75934558 -31.61410031 222.67804937 -36.265625 213.375 C-37.84945988 213.49347584 -39.43266788 213.62032272 -41.015625 213.75 C-41.89734375 213.81960938 -42.7790625 213.88921875 -43.6875 213.9609375 C-46.75829594 214.31629161 -49.71472295 214.8332293 -52.75 215.40234375 C-59.77271742 216.59635795 -66.65809125 216.63402709 -73.765625 216.5625 C-75.0134375 216.56185547 -76.26125 216.56121094 -77.546875 216.56054688 C-87.50386174 216.51226407 -87.50386174 216.51226407 -91.265625 215.375 C-93.05317849 209.50365698 -92.50615797 203.20419717 -92.515625 197.125 C-92.51796143 196.44881622 -92.52029785 195.77263245 -92.52270508 195.07595825 C-92.53469649 185.9122036 -92.07098605 177.23337437 -89.921875 168.30859375 C-89.28657851 165.46866719 -88.84386043 163.25788487 -89.265625 160.375 C-90.84489071 158.77660168 -90.84489071 158.77660168 -93.078125 157.625 C-105.38507838 150.02646113 -119.28257382 138.62880664 -127.265625 126.375 C-126.33761695 122.15556772 -124.01732131 119.80014874 -120.953125 116.875 C-120.19386719 116.1428125 -119.43460937 115.410625 -118.65234375 114.65625 C-117.86472656 113.9034375 -117.07710938 113.150625 -116.265625 112.375 C-115.4509375 111.55773437 -114.63625 110.74046875 -113.796875 109.8984375 C-94.21299342 90.375 -94.21299342 90.375 -88.265625 90.375 C-88.47058594 89.37339844 -88.67554688 88.37179687 -88.88671875 87.33984375 C-89.15895912 85.99741711 -89.4310886 84.65496799 -89.703125 83.3125 C-89.83783203 82.65572266 -89.97253906 81.99894531 -90.11132812 81.32226562 C-90.24345703 80.66806641 -90.37558594 80.01386719 -90.51171875 79.33984375 C-90.63216553 78.7480835 -90.7526123 78.15632324 -90.87670898 77.54663086 C-91.8416428 72.15862941 -92.39307931 66.96473696 -92.3984375 61.48828125 C-92.40037109 59.5865918 -92.40037109 59.5865918 -92.40234375 57.64648438 C-92.39847656 56.34001953 -92.39460938 55.03355469 -92.390625 53.6875 C-92.39449219 52.36943359 -92.39835937 51.05136719 -92.40234375 49.69335938 C-92.40105469 48.42943359 -92.39976562 47.16550781 -92.3984375 45.86328125 C-92.39730957 44.71384033 -92.39618164 43.56439941 -92.39501953 42.38012695 C-92.1905519 37.63146256 -92.1905519 37.63146256 -91.265625 35.375 C-88.10075426 34.32004309 -85.84646399 34.24581696 -82.5234375 34.2421875 C-81.37359375 34.24089844 -80.22375 34.23960937 -79.0390625 34.23828125 C-77.83507812 34.24214844 -76.63109375 34.24601562 -75.390625 34.25 C-74.2253125 34.24613281 -73.06 34.24226563 -71.859375 34.23828125 C-51.90176569 34.2604072 -51.90176569 34.2604072 -44.265625 36.375 C-40.14788895 37.32494387 -40.14788895 37.32494387 -36.265625 36.375 C-33.27534744 33.26221572 -30.96101401 29.72762049 -28.54003906 26.171875 C-8.34517045 -2.30211599 -8.34517045 -2.30211599 0 0 Z " fill="#B08C4D" transform="translate(584.265625,209.625)"/>
<path d="M0 0 C4.17210385 1.20204673 6.92713154 3.29364541 10.31640625 5.9375 C15.68918901 10.28527926 15.68918901 10.28527926 22.25390625 11.9375 C23.92549423 11.62979475 25.5919258 11.29346332 27.25390625 10.9375 C29.6905739 10.87048494 32.12892367 10.85221979 34.56640625 10.875 C35.82066406 10.88402344 37.07492187 10.89304687 38.3671875 10.90234375 C39.31980469 10.91394531 40.27242187 10.92554688 41.25390625 10.9375 C41.28153046 12.89574931 41.30057639 14.85411983 41.31640625 16.8125 C41.33574219 18.60107422 41.33574219 18.60107422 41.35546875 20.42578125 C41.26715043 23.47955689 40.8391302 26.03690463 40.19140625 29 C39.67131459 33.13371557 40.82819637 35.31311834 43.25610352 38.65991211 C44.45759577 40.19098608 45.70659286 41.68441444 46.95703125 43.17578125 C52.31050394 49.61269484 52.31050394 49.61269484 52.1484375 53.40625 C51.09142048 56.39728507 49.68133109 58.78476662 47.94140625 61.4375 C47.34714844 62.3553125 46.75289062 63.273125 46.140625 64.21875 C44.25390625 66.9375 44.25390625 66.9375 42.0078125 69.53515625 C39.83475384 71.97384336 39.83475384 71.97384336 40.50390625 75.875 C40.63152344 76.63554687 40.75914062 77.39609375 40.890625 78.1796875 C41.62099329 83.72420376 41.32537777 89.35478021 41.25390625 94.9375 C38.92048861 94.96484474 36.58741006 94.98461184 34.25390625 95 C33.56200195 95.00837891 32.87009766 95.01675781 32.15722656 95.02539062 C28.60112532 95.04212522 25.4348524 94.8528995 22.00390625 93.9375 C15.78809287 93.9375 11.90854061 98.12526879 7.25390625 101.9375 C2.08522641 105.99860558 2.08522641 105.99860558 -1.03125 105.76953125 C-4.43125702 104.72751471 -6.88459427 103.08083592 -9.80859375 101.0625 C-11.34193359 100.01449219 -11.34193359 100.01449219 -12.90625 98.9453125 C-15.74609375 96.9375 -15.74609375 96.9375 -17.76953125 95.16015625 C-20.49617381 93.47351767 -22.16221722 93.83523132 -25.30859375 94.25 C-31.15631348 94.91173458 -36.86665922 95.04166321 -42.74609375 94.9375 C-42.77371796 92.97925069 -42.79276389 91.02088017 -42.80859375 89.0625 C-42.82148437 87.86882812 -42.834375 86.67515625 -42.84765625 85.4453125 C-42.75969549 82.40728322 -42.33474197 79.88224494 -41.68359375 76.9375 C-40.90979556 70.79736111 -44.8927576 66.50511271 -48.44921875 61.91796875 C-52.65029457 56.46657275 -52.65029457 56.46657275 -53.74609375 53.9375 C-52.97852435 49.38734861 -50.78744564 46.4752796 -47.96240234 42.99169922 C-43.48397175 37.54667626 -43.48397175 37.54667626 -41.3125 31.00390625 C-41.57909398 28.3108727 -41.57909398 28.3108727 -42.171875 25.69140625 C-42.84077636 22.48340993 -42.85070156 19.52292548 -42.80859375 16.25 C-42.79957031 15.23550781 -42.79054688 14.22101563 -42.78125 13.17578125 C-42.76964844 12.43714844 -42.75804687 11.69851563 -42.74609375 10.9375 C-41.16287181 10.90945079 -39.57948675 10.89065502 -37.99609375 10.875 C-36.98675781 10.86082031 -35.97742188 10.84664063 -34.9375 10.83203125 C-31.74609375 10.9375 -31.74609375 10.9375 -28.8359375 11.51171875 C-23.79602895 12.46814823 -20.39224126 12.57752464 -15.98046875 9.84765625 C-12.4169104 7.39319467 -9.08366277 4.68843904 -5.74609375 1.9375 C-2.74609375 -0.0625 -2.74609375 -0.0625 0 0 Z " fill="#45133B" transform="translate(583.74609375,282.0625)"/>
<path d="M0 0 C7.363125 -0.0825 14.72625 -0.165 22.3125 -0.25 C24.61387939 -0.28641602 26.91525879 -0.32283203 29.28637695 -0.36035156 C31.14533562 -0.37205257 33.00430467 -0.38224103 34.86328125 -0.390625 C35.80022827 -0.41108887 36.73717529 -0.43155273 37.70251465 -0.45263672 C45.18877273 -0.45651712 53.28263079 0.6541372 59.04243469 5.83831787 C63.28233524 10.62507422 64.38124376 13.95514095 64.26171875 20.3359375 C63.72881584 25.76041186 62.01266734 29.3358157 57.7890625 32.828125 C52.3540325 36.40688321 48.4644945 37.71827717 42 37 C42 37.66 42 38.32 42 39 C42.82757812 39.37898437 42.82757812 39.37898437 43.671875 39.765625 C47.43759799 41.76221639 50.73914801 44.37217524 54.16015625 46.90234375 C55.92459708 48.20565149 57.70127617 49.492759 59.49609375 50.75390625 C60.21925781 51.26824219 60.94242188 51.78257812 61.6875 52.3125 C62.65236328 52.98732422 62.65236328 52.98732422 63.63671875 53.67578125 C64.08660156 54.11277344 64.53648437 54.54976562 65 55 C65 55.99 65 56.98 65 58 C57.48180854 58.93587446 51.10867808 59.48850833 44.80395508 54.87817383 C41.14137705 51.89710858 37.75213381 48.79085521 34.49609375 45.3671875 C29.4359323 40.18198088 26.01780864 38.25943647 18.875 37.9375 C16.58332962 37.91707917 14.29048922 37.92365036 12 38 C12.00523682 38.57032959 12.01047363 39.14065918 12.01586914 39.72827148 C12.03658221 42.29800323 12.0496419 44.86771747 12.0625 47.4375 C12.07087891 48.33533203 12.07925781 49.23316406 12.08789062 50.15820312 C12.09111328 51.01220703 12.09433594 51.86621094 12.09765625 52.74609375 C12.10289307 53.53685303 12.10812988 54.3276123 12.11352539 55.14233398 C12 57 12 57 11 58 C7.37 58 3.74 58 0 58 C0 38.86 0 19.72 0 0 Z " fill="#F9F8F9" transform="translate(675,505)"/>
<path d="M0 0 C6.090744 5.22063771 10.07739135 10.04217989 10.80557251 18.29701233 C10.87102596 20.53132004 10.87632516 22.75702907 10.85546875 24.9921875 C10.85501053 25.80116486 10.85455231 26.61014221 10.8540802 27.44363403 C10.85107756 29.1395211 10.84325148 30.83540591 10.83081055 32.53125 C10.81240739 35.13811894 10.81030214 37.74463499 10.81054688 40.3515625 C10.80563644 42.00260726 10.79981021 43.65364961 10.79296875 45.3046875 C10.79185593 46.08689667 10.7907431 46.86910583 10.78959656 47.67501831 C10.74109781 53.13390219 10.74109781 53.13390219 9.625 54.25 C7.77212498 54.32226502 5.91666122 54.3338122 4.0625 54.3125 C3.05058594 54.30347656 2.03867187 54.29445313 0.99609375 54.28515625 C-0.17759766 54.26775391 -0.17759766 54.26775391 -1.375 54.25 C-2.035 52.27 -2.695 50.29 -3.375 48.25 C-4.01566406 48.58773437 -4.65632812 48.92546875 -5.31640625 49.2734375 C-6.18136719 49.71945312 -7.04632812 50.16546875 -7.9375 50.625 C-8.78441406 51.06585937 -9.63132812 51.50671875 -10.50390625 51.9609375 C-17.14466905 54.94250447 -23.0849367 55.58951758 -30.25 55.5625 C-31.52037109 55.58666992 -31.52037109 55.58666992 -32.81640625 55.61132812 C-40.22995624 55.61700466 -47.20957744 54.54950526 -52.8125 49.375 C-56.04487547 45.73074289 -57.2097009 42.73769186 -57.75 37.875 C-57.17464152 32.31320135 -55.03557282 28.86569248 -51.0625 25 C-39.70737005 17.60596189 -24.15515474 17.51309025 -11.10546875 19.921875 C-8.15858834 20.61067174 -5.26361758 21.34965166 -2.375 22.25 C-2.36544583 14.54478066 -2.36544583 14.54478066 -5.5 7.75 C-12.15794353 1.96048388 -17.76524922 1.71855653 -26.4375 1.890625 C-33.35987427 2.522429 -40.08999498 4.24356108 -46.0546875 7.88671875 C-48.375 9.25 -48.375 9.25 -51.375 9.25 C-51.705 7.27 -52.035 5.29 -52.375 3.25 C-36.06787379 -5.52439278 -17.24673272 -8.9427503 0 0 Z " fill="#F5F3F5" transform="translate(806.375,508.75)"/>
<path d="M0 0 C4.53888793 4.30809702 6.76415426 10.40447875 6.97314453 16.56298828 C6.97974475 18.14874969 6.98051282 19.73454227 6.9765625 21.3203125 C6.97751923 22.15714569 6.97847595 22.99397888 6.97946167 23.85617065 C6.98014173 25.6230273 6.97829957 27.38988645 6.97412109 29.15673828 C6.96875696 31.87147577 6.97407883 34.58604882 6.98046875 37.30078125 C6.9798082 39.01562537 6.97852752 40.73046938 6.9765625 42.4453125 C6.97858673 43.26194366 6.98061096 44.07857483 6.98269653 44.91995239 C6.95870964 50.63504036 6.95870964 50.63504036 5.84375 51.75 C4.01259117 51.84851171 2.17755067 51.87972629 0.34375 51.875 C-0.6565625 51.87757813 -1.656875 51.88015625 -2.6875 51.8828125 C-5.15625 51.75 -5.15625 51.75 -6.15625 50.75 C-6.19688832 49.08382885 -6.198971 47.41611905 -6.15625 45.75 C-7.249375 46.348125 -8.3425 46.94625 -9.46875 47.5625 C-21.16107768 53.26656958 -34.65786076 54.86075316 -47.42578125 52.0234375 C-52.30754361 50.22296743 -55.87318633 47.88030591 -59.15625 43.75 C-60.80559013 38.8019796 -60.85613592 33.9024935 -60.15625 28.75 C-57.59526785 23.67234334 -53.42489929 20.71283013 -48.15625 18.75 C-34.3921624 14.46282517 -19.92096226 16.63765591 -6.15625 19.75 C-6.15010927 12.06357323 -6.15010927 12.06357323 -9.21875 5.25 C-15.79530797 -0.34707062 -22.0800208 -0.78994579 -30.4765625 -0.609375 C-37.27952196 0.05503293 -43.97530516 1.80994776 -49.83984375 5.38671875 C-52.15625 6.75 -52.15625 6.75 -55.15625 6.75 C-55.48625 4.77 -55.81625 2.79 -56.15625 0.75 C-40.1272189 -9.72892731 -16.0019744 -11.59563362 0 0 Z " fill="#F5F3F5" transform="translate(653.15625,511.25)"/>
<path d="M0 0 C3.14264401 2.86535189 5.84182643 5.89153196 8.375 9.3125 C8.89835938 10.00988281 9.42171875 10.70726562 9.9609375 11.42578125 C11.18354952 14.4547336 10.88158058 16.57647955 10.35058594 19.75463867 C9.71771921 23.80789443 9.62930025 27.90616511 9.4375 32 C9.39431641 32.87011719 9.35113281 33.74023438 9.30664062 34.63671875 C9.20175782 36.75768219 9.10049925 38.87882433 9 41 C10.98097489 40.89956222 12.96190986 40.79827049 14.94262695 40.69287109 C16.61405422 40.60552966 18.28578796 40.52387796 19.95776367 40.44775391 C24.06174742 40.24394433 27.81684853 39.87768235 31.8125 38.875 C36.68104382 38.28402069 39.77050614 41.2331856 43.5078125 44.0378418 C70.32406264 64.09276235 102.23254146 69.80550042 135 70 C134.40012741 49.02514469 131.47657175 30.14324843 124.73046875 10.2578125 C124 7 124 7 124.6796875 4.78515625 C125.78645833 3.19010417 126.89322917 1.59505208 128 0 C143.22002242 17.86698284 143.39246986 55.3149147 142 77 C139.95600293 79.04399707 135.8768503 78.17023254 133.14233398 78.19067383 C122.57183057 78.18040584 112.40618992 77.99783329 102 76 C100.72672852 75.76603516 100.72672852 75.76603516 99.42773438 75.52734375 C79.02884028 71.71050286 54.4028562 65.3646963 38.68334961 50.86279297 C35.19305102 48.43981251 33.05382707 48.55262583 28.8359375 48.64453125 C27.82510605 48.65657845 27.82510605 48.65657845 26.79385376 48.66886902 C24.65341355 48.69772516 22.51481507 48.75394425 20.375 48.8125 C18.22828673 48.85507824 16.08161841 48.89194276 13.9347229 48.92399597 C11.99192776 48.95551453 10.04939991 49.00239399 8.10693359 49.05004883 C5 49 5 49 2 48 C1.04543506 44.03848596 0.93446643 40.44589234 1.04296875 36.37890625 C1.06423828 35.11369141 1.08550781 33.84847656 1.10742188 32.54492188 C1.16073404 29.89361686 1.22580729 27.24252181 1.30273438 24.59179688 C1.32013672 23.32529297 1.33753906 22.05878906 1.35546875 20.75390625 C1.38278076 19.60220947 1.41009277 18.4505127 1.43823242 17.26391602 C0.90700199 13.30735913 -0.76649354 11.25091445 -3 8 C-1.9 1.9 -1.9 1.9 0 0 Z " fill="#4B193C" transform="translate(526,342)"/>
<path d="M0 0 C3.30076145 0.93417777 4.13171772 1.50635601 6.3125 3.9375 C5.31669922 4.51757812 5.31669922 4.51757812 4.30078125 5.109375 C3.41777344 5.63015625 2.53476562 6.1509375 1.625 6.6875 C0.75488281 7.19796875 -0.11523438 7.7084375 -1.01171875 8.234375 C-3.7383561 9.8541907 -3.7383561 9.8541907 -5.95507812 12.06054688 C-9.41803418 14.43931798 -10.96866854 14.21772408 -15.08203125 13.671875 C-16.28408203 13.52363281 -17.48613281 13.37539063 -18.72460938 13.22265625 C-19.97048828 13.04605469 -21.21636719 12.86945313 -22.5 12.6875 C-23.76521484 12.52636719 -25.03042969 12.36523438 -26.33398438 12.19921875 C-29.45504036 11.79878138 -32.57182677 11.37756863 -35.6875 10.9375 C-35.54774595 14.47943375 -35.39961066 18.02096999 -35.25 21.5625 C-35.21068359 22.56152344 -35.17136719 23.56054688 -35.13085938 24.58984375 C-34.8918552 30.47784824 -34.8918552 30.47784824 -33.90625 36.2734375 C-33.58265973 40.21430476 -35.25729383 41.84884502 -37.625 44.9375 C-38.46795476 46.08270221 -39.30637709 47.23125215 -40.140625 48.3828125 C-40.56794922 48.9696582 -40.99527344 49.55650391 -41.43554688 50.16113281 C-48.13572003 59.66785276 -52.76862787 70.04654492 -56.6875 80.9375 C-57.06777344 81.98292969 -57.44804688 83.02835937 -57.83984375 84.10546875 C-63.70142269 101.55749057 -64.28296587 119.68876409 -64.6875 137.9375 C-44.70357981 137.72113866 -25.36551256 135.11763789 -6.7109375 127.66015625 C-2.97032221 126.76608154 -1.12194326 127.27932324 2.3125 128.9375 C2.9725 129.9275 3.6325 130.9175 4.3125 131.9375 C-19.11660785 142.40765076 -46.01359126 147.32416288 -71.6875 144.9375 C-73.62059987 143.00440013 -72.85646779 139.53789965 -72.87768555 136.94140625 C-72.85210014 108.9184116 -69.21378676 75.02969638 -51.7265625 51.8515625 C-41.98717155 38.69809157 -42.57658203 26.46423018 -43.62646484 10.74633789 C-43.6875 7.9375 -43.6875 7.9375 -42.6875 4.9375 C-39.75011245 3.46880623 -37.1956036 3.90008137 -33.921875 3.98046875 C-32.54298335 4.00287082 -31.16407604 4.02432471 -29.78515625 4.04492188 C-27.61463951 4.0819054 -25.44492497 4.12479631 -23.27490234 4.18432617 C-21.1779451 4.23915641 -19.08187364 4.26800598 -16.984375 4.29296875 C-15.10250488 4.33393677 -15.10250488 4.33393677 -13.18261719 4.37573242 C-7.85039385 3.70715594 -5.36998537 -0.0910167 0 0 Z " fill="#4A193C" transform="translate(570.6875,275.0625)"/>
<path d="M0 0 C25.97863233 0.30599309 58.20800282 5.36109146 79.33496094 22.04516602 C91.31657425 31.27147636 103.19272855 30.28639189 117.8828125 29.35986328 C120.43179263 29.3196414 122.33491296 29.54446715 124.74511719 30.31469727 C124.75446289 31.31847412 124.76380859 32.32225098 124.7734375 33.35644531 C124.8134195 37.09354436 124.87919975 40.82982724 124.95263672 44.56640625 C124.98079905 46.18120815 125.00203719 47.79614669 125.01611328 49.41113281 C125.03760977 51.73776964 125.08428929 54.06277204 125.13574219 56.38891602 C125.13758514 57.46576912 125.13758514 57.46576912 125.13946533 58.56437683 C125.28217038 63.48795597 126.5227106 65.69411051 129.74511719 69.31469727 C129.67819145 72.66098436 129.48932996 74.51266345 127.18652344 76.99438477 C126.71085938 77.43008789 126.23519531 77.86579102 125.74511719 78.31469727 C120.52644731 73.5639783 117.09279673 68.98292344 116.41699219 61.8527832 C116.31325039 53.31353655 116.93333695 44.81178094 117.74511719 36.31469727 C115.16145474 36.45589742 112.57828834 36.6024806 109.99511719 36.75219727 C109.26550781 36.79151367 108.53589844 36.83083008 107.78417969 36.87133789 C104.31049274 37.07660121 101.10171747 37.43065953 97.74511719 38.31469727 C93.21382156 39.1385692 90.98959345 39.06634675 87.00292969 36.65844727 C85.42758294 35.52002875 83.85278458 34.38073903 82.28930664 33.22607422 C63.09880604 19.21854748 41.91896583 12.88570153 18.74511719 9.31469727 C17.58109375 9.12649414 16.41707031 8.93829102 15.21777344 8.74438477 C10.75290932 8.19192689 6.29987905 7.96058356 1.80761719 7.75219727 C0.49567383 7.68742187 0.49567383 7.68742187 -0.84277344 7.62133789 C-2.98000276 7.51622825 -5.11742519 7.41505741 -7.25488281 7.31469727 C-6.82958781 26.6526966 -5.56278253 44.57637826 0.65917969 62.95922852 C2.46031586 68.52460972 2.46031586 68.52460972 2.74511719 71.31469727 C0.80761719 74.62719727 0.80761719 74.62719727 -1.25488281 77.31469727 C-6.16429103 71.47016367 -7.96889215 64.30921365 -9.81738281 57.06469727 C-10.03426758 56.22277832 -10.25115234 55.38085938 -10.47460938 54.51342773 C-14.11434137 40.17818586 -15.33004426 26.34182697 -15.37988281 11.56469727 C-15.38689209 10.08005981 -15.38689209 10.08005981 -15.39404297 8.56542969 C-15.39194824 7.64221924 -15.38985352 6.71900879 -15.38769531 5.76782227 C-15.38656738 4.93412109 -15.38543945 4.10041992 -15.38427734 3.24145508 C-15.0170192 -2.22722659 -4.06565927 0.00264309 0 0 Z " fill="#49173C" transform="translate(513.2548828125,249.685302734375)"/>
<path d="M0 0 C1.18207031 -0.00386719 2.36414063 -0.00773438 3.58203125 -0.01171875 C5.26232422 -0.00978516 5.26232422 -0.00978516 6.9765625 -0.0078125 C8.49757568 -0.00612061 8.49757568 -0.00612061 10.04931641 -0.00439453 C12.375 0.125 12.375 0.125 13.375 1.125 C14.48093487 16.21598397 13.58850012 31.35768835 10.375 46.125 C10.19275879 46.96820801 10.01051758 47.81141602 9.82275391 48.68017578 C7.55804385 58.89502091 4.9317602 68.66476958 0.375 78.125 C0.08753906 78.73794922 -0.19992187 79.35089844 -0.49609375 79.98242188 C-1.4622967 82.03710658 -2.446335 84.08224784 -3.4375 86.125 C-3.73245361 86.74149414 -4.02740723 87.35798828 -4.33129883 87.99316406 C-5.89534653 91.13021317 -7.4531371 93.90707033 -9.63427734 96.67285156 C-16.54797098 105.64755041 -16.76917361 113.00934417 -16.625 123.875 C-16.63311145 125.45835592 -16.64480658 127.0416977 -16.66015625 128.625 C-16.68966995 132.45942361 -16.67099544 136.29076935 -16.625 140.125 C-17.62354004 140.1343457 -18.62208008 140.14369141 -19.65087891 140.15332031 C-23.37495642 140.19335745 -27.09821967 140.25915266 -30.82177734 140.33251953 C-32.42974341 140.36065005 -34.03784572 140.38190389 -35.64599609 140.39599609 C-37.96522367 140.41753691 -40.28282695 140.46423872 -42.6015625 140.515625 C-43.67067368 140.51746796 -43.67067368 140.51746796 -44.76138306 140.51934814 C-49.85755771 140.6670721 -52.57509367 142.15116291 -56.625 145.125 C-59.71704689 145.05309193 -61.02513127 144.69352167 -63.26953125 142.56640625 C-63.71683594 142.09074219 -64.16414062 141.61507812 -64.625 141.125 C-59.88359665 136.01504219 -55.31503109 132.48495078 -48.26123047 131.796875 C-40.02294392 131.69345202 -31.81907335 132.31177016 -23.625 133.125 C-23.76714728 130.12478513 -23.91361696 127.12488211 -24.0625 124.125 C-24.10181641 123.28582031 -24.14113281 122.44664062 -24.18164062 121.58203125 C-24.22353516 120.75058594 -24.26542969 119.91914063 -24.30859375 119.0625 C-24.34911865 118.23041016 -24.38964355 117.39832031 -24.43139648 116.54101562 C-24.61327694 114.27129433 -25.00130007 112.1377964 -25.4375 109.90625 C-25.67248044 105.16747786 -24.09927274 103.08224587 -21.1875 99.625 C-9.13013914 84.00952106 -1.59571337 64.36374671 2.375 45.125 C2.53258789 44.4434082 2.69017578 43.76181641 2.85253906 43.05957031 C4.4612984 35.7500126 5.01292529 28.45783239 5.5 21 C5.62955078 19.13601563 5.62955078 19.13601563 5.76171875 17.234375 C5.97191118 14.19826211 6.17620633 11.16187689 6.375 8.125 C-11.9712944 7.74278553 -31.32187568 8.48824924 -48.5625 15.375 C-53.47243189 17.28482448 -56.52192402 17.49189535 -61.625 16.125 C-63.34375 14.56640625 -63.34375 14.56640625 -64.625 13.125 C-58.459273 10.21572743 -52.29010503 7.91465407 -45.75 6 C-44.43237671 5.61098511 -44.43237671 5.61098511 -43.08813477 5.21411133 C-28.79305971 1.07066881 -14.85008172 -0.05022576 0 0 Z " fill="#49173C" transform="translate(654.625,249.875)"/>
<path d="M0 0 C-0.33 1.32 -0.66 2.64 -1 4 C-5.09524828 5.36508276 -7.24504596 4.62143158 -11.078125 2.8359375 C-19.77065921 -0.94496153 -32.36744247 -2.20852772 -41.25 1.25 C-44.85241597 3.49630112 -44.85241597 3.49630112 -47 7 C-47.3309316 10.60030189 -47.3309316 10.60030189 -46 14 C-40.13885568 17.38235204 -34.34038646 17.62008176 -27.6875 18 C-17.26738162 18.60208169 -7.33659797 19.44128491 0.48828125 26.98046875 C3.12421734 30.50186141 3.56348483 33.69230677 3 38 C1.53033447 43.24745961 -1.22939683 47.09681268 -5.8671875 49.96875 C-19.76090299 56.68659046 -39.64790558 55.98568396 -54 51 C-56.80145196 49.80852882 -59.34791434 48.50804871 -62 47 C-61.67 45.35 -61.34 43.7 -61 42 C-58.34008144 40.9769544 -57.23451431 40.91247261 -54.51953125 41.92578125 C-53.62621094 42.38339844 -52.73289062 42.84101562 -51.8125 43.3125 C-40.57617887 48.67732176 -30.4566524 49.19853853 -18.4453125 46.046875 C-15.51092072 44.79061782 -13.95461273 43.52208094 -12 41 C-11.52077641 38.64475339 -11.52077641 38.64475339 -11.75 36.25 C-11.80414062 35.05117188 -11.80414062 35.05117188 -11.859375 33.828125 C-11.90578125 33.22484375 -11.9521875 32.6215625 -12 32 C-18.60053243 29.23819827 -24.94232403 28.72642862 -32 28.5 C-42.04233567 28.13525957 -49.99888757 27.47865217 -57.72265625 20.5 C-60.61412682 17.10451162 -60.45804475 12.81596622 -60.40234375 8.5703125 C-59.71285707 4.16563059 -57.41960458 1.71259773 -54 -1 C-38.71881351 -10.60197159 -15.40553265 -7.97209382 0 0 Z " fill="#F8F7F8" transform="translate(527,510)"/>
<path d="M0 0 C4.62 0 9.24 0 14 0 C14.87140625 1.56105469 15.7428125 3.12210937 16.640625 4.73046875 C17.84364717 6.88286998 19.04678033 9.03520917 20.25 11.1875 C20.87664551 12.30979004 21.50329102 13.43208008 22.14892578 14.58837891 C25.2641507 20.15683364 28.39855315 25.71180622 31.6015625 31.23046875 C32.15424805 32.18477783 32.70693359 33.13908691 33.27636719 34.12231445 C34.3262115 35.93004118 35.38139122 37.73468191 36.44238281 39.53588867 C36.91256836 40.34646729 37.38275391 41.1570459 37.8671875 41.9921875 C38.28081543 42.69714355 38.69444336 43.40209961 39.12060547 44.12841797 C40 46 40 46 40 49 C40.66 49 41.32 49 42 49 C42.27070313 48.2884375 42.54140625 47.576875 42.8203125 46.84375 C47.41489913 35.76805772 54.16778332 25.39607039 60.1328125 15.015625 C62.47515695 10.93826917 64.76085019 6.8326994 67.01513672 2.70605469 C68 1 68 1 69 0 C71.67058851 -0.14115161 74.32432238 -0.04247107 77 0 C76.41158944 4.05655004 75.10756759 6.91158306 73.015625 10.421875 C72.40976562 11.44796875 71.80390625 12.4740625 71.1796875 13.53125 C70.22449219 15.12453125 70.22449219 15.12453125 69.25 16.75 C68.00436398 18.84845736 66.75955903 20.94740828 65.515625 23.046875 C64.91202148 24.06330078 64.30841797 25.07972656 63.68652344 26.12695312 C61.81061354 29.32262593 60.00544413 32.55122597 58.21972656 35.79785156 C55.94995373 39.89580011 53.59656091 43.94569934 51.25 48 C50.75628906 48.85722656 50.26257813 49.71445312 49.75390625 50.59765625 C49.28339844 51.41105469 48.81289063 52.22445312 48.328125 53.0625 C47.9043457 53.79597656 47.48056641 54.52945313 47.04394531 55.28515625 C46 57 46 57 45 58 C42.234375 58.37890625 42.234375 58.37890625 38.75 58.5625 C37.61046875 58.64628906 36.4709375 58.73007812 35.296875 58.81640625 C31.66148263 57.91617283 31.40338466 57.70035691 29.51953125 54.7265625 C28.66444974 53.15925939 27.82626812 51.58268266 27 50 C25.89008389 48.08636906 24.77373516 46.17646032 23.65234375 44.26953125 C22.41225234 42.11822993 21.17405025 39.9658387 19.9375 37.8125 C19.28644287 36.6793335 18.63538574 35.54616699 17.96459961 34.37866211 C16.96192507 32.63340167 15.95944833 30.8880297 14.9577179 29.14222717 C12.76982174 25.33126801 10.56498865 21.53055245 8.3515625 17.734375 C7.25515453 15.8437812 6.1587975 13.95315786 5.0625 12.0625 C4.29184204 10.75019409 4.29184204 10.75019409 3.50561523 9.41137695 C2.80867554 8.20421021 2.80867554 8.20421021 2.09765625 6.97265625 C1.69039307 6.27406494 1.28312988 5.57547363 0.86352539 4.85571289 C0 3 0 3 0 0 Z " fill="#F7F5F7" transform="translate(350,505)"/>
<path d="M0 0 C0 4.95 0 9.9 0 15 C1.93746094 14.98839844 3.87492188 14.97679687 5.87109375 14.96484375 C8.39322821 14.95546779 10.9153637 14.94636738 13.4375 14.9375 C14.71689453 14.92912109 15.99628906 14.92074219 17.31445312 14.91210938 C19.13686523 14.90727539 19.13686523 14.90727539 20.99609375 14.90234375 C22.12200928 14.89710693 23.2479248 14.89187012 24.40795898 14.88647461 C27 15 27 15 28 16 C28 17.65 28 19.3 28 21 C18.76 21 9.52 21 0 21 C0.0740806 26.32103084 0.15697972 31.64040518 0.26245117 36.96069336 C0.29565114 38.76952458 0.32369841 40.57845818 0.34643555 42.38745117 C0.38007258 44.99181633 0.43239195 47.5952476 0.48828125 50.19921875 C0.49467117 51.00461594 0.5010611 51.81001312 0.50764465 52.63981628 C0.62727108 57.23537616 1.07281123 60.2427938 4 64 C10.47399259 68.59667278 21.58853766 65.98819498 29 65 C29.33 66.65 29.66 68.3 30 70 C21.19899018 73.77186135 10.14264753 74.84816237 0.87109375 72.05859375 C-5.30170349 69.12398523 -9.33432176 65.36365388 -12 59 C-12.24050903 56.39300537 -12.24050903 56.39300537 -12.22705078 53.40527344 C-12.22689972 52.28441345 -12.22674866 51.16355347 -12.22659302 50.00872803 C-12.21627045 48.80444153 -12.20594788 47.60015503 -12.1953125 46.359375 C-12.1924826 45.12205627 -12.18965271 43.88473755 -12.18673706 42.60992432 C-12.177442 39.32848459 -12.15948705 36.04724246 -12.1373291 32.76586914 C-12.11683048 29.41424378 -12.10789724 26.06260993 -12.09765625 22.7109375 C-12.0756003 16.14054777 -12.04212582 9.57029004 -12 3 C-10.75336669 2.49166409 -9.50250613 1.99368855 -8.25 1.5 C-7.55390625 1.2215625 -6.8578125 0.943125 -6.140625 0.65625 C-4 0 -4 0 0 0 Z " fill="#F9F7F8" transform="translate(555,491)"/>
<path d="M0 0 C4.30670879 -0.1152211 8.60801292 -0.21459816 12.91503906 -0.2746582 C14.37778907 -0.29970529 15.84041512 -0.33375392 17.30273438 -0.37719727 C19.41307219 -0.43829356 21.52174752 -0.46630435 23.6328125 -0.48828125 C24.90012207 -0.51446533 26.16743164 -0.54064941 27.47314453 -0.56762695 C32.55098699 0.24962237 35.31286216 2.69935749 38.375 6.875 C39.67156778 11.28333045 39.40662687 14.90852788 37.8125 19.1875 C35.47953993 22.80761046 32.84455245 25.07772378 29 27 C26.82175039 27.08559118 24.64084745 27.10713412 22.4609375 27.09765625 C21.15898438 27.09443359 19.85703125 27.09121094 18.515625 27.08789062 C17.13541601 27.07953466 15.75520768 27.07106971 14.375 27.0625 C12.98698074 27.05748501 11.59895978 27.0529221 10.2109375 27.04882812 C6.80727327 27.03700985 3.4036313 27.0190739 0 27 C0 18.09 0 9.18 0 0 Z " fill="#491840" transform="translate(687,511)"/>
<path d="M0 0 C0 4.95 0 9.9 0 15 C-8.42305061 19.38460169 -15.5584712 22.35771044 -25.125 22.3125 C-25.81464844 22.32861328 -26.50429688 22.34472656 -27.21484375 22.36132812 C-31.67903747 22.365596 -34.4833954 21.77198548 -38 19 C-40.7512624 16.09790085 -41.45097257 14.03984997 -41.5 10.0625 C-41.36636236 6.42755623 -41.12153833 5.18426779 -39.0625 2.0625 C-26.86791551 -6.15017935 -13.42325246 -2.98294499 0 0 Z " fill="#48173F" transform="translate(804,536)"/>
<path d="M0 0 C0.96035156 -0.01224609 1.92070313 -0.02449219 2.91015625 -0.03710938 C9.04509458 -0.04959568 14.43650431 0.63859339 20.375 2.1875 C20.375 7.1375 20.375 12.0875 20.375 17.1875 C12.14260969 22.00028203 5.32185276 24.5422785 -4.25 24.5 C-4.98734375 24.51611328 -5.7246875 24.53222656 -6.484375 24.54882812 C-11.06871109 24.55293595 -14.02213985 24.06848745 -17.625 21.1875 C-21.05412118 17.54689117 -21.30560558 14.52691028 -21.18359375 9.66796875 C-20.35088152 5.9702606 -18.41746338 4.44271923 -15.44921875 2.24609375 C-10.57485108 -0.58250077 -5.45664177 0.00357578 0 0 Z " fill="#47153E" transform="translate(626.625,533.8125)"/>
<path d="M0 0 C1.50046875 0.00386719 1.50046875 0.00386719 3.03125 0.0078125 C4.0315625 0.00523437 5.031875 0.00265625 6.0625 0 C8.53125 0.1328125 8.53125 0.1328125 9.53125 1.1328125 C9.63012792 2.87663785 9.65924032 4.62446793 9.66064453 6.37109375 C9.66379669 7.48895264 9.66694885 8.60681152 9.67019653 9.75854492 C9.6681723 10.97517822 9.66614807 12.19181152 9.6640625 13.4453125 C9.66501923 14.68450439 9.66597595 15.92369629 9.66696167 17.20043945 C9.66764374 19.82669531 9.66628538 22.45285883 9.66162109 25.07910156 C9.65592381 28.45209964 9.65920302 31.82501815 9.66519356 35.19801331 C9.6696677 38.40544927 9.66653882 41.6128755 9.6640625 44.8203125 C9.66608673 46.0369458 9.66811096 47.2535791 9.67019653 48.50708008 C9.66704437 49.62493896 9.66389221 50.74279785 9.66064453 51.89453125 C9.65984894 52.88412842 9.65905334 53.87372559 9.65823364 54.89331055 C9.53125 57.1328125 9.53125 57.1328125 8.53125 58.1328125 C6.70009117 58.23132421 4.86505067 58.26253879 3.03125 58.2578125 C2.0309375 58.26039063 1.030625 58.26296875 0 58.265625 C-2.46875 58.1328125 -2.46875 58.1328125 -3.46875 57.1328125 C-3.56762792 55.38898715 -3.59674032 53.64115707 -3.59814453 51.89453125 C-3.60129669 50.77667236 -3.60444885 49.65881348 -3.60769653 48.50708008 C-3.6056723 47.29044678 -3.60364807 46.07381348 -3.6015625 44.8203125 C-3.60251923 43.58112061 -3.60347595 42.34192871 -3.60446167 41.06518555 C-3.60514374 38.43892969 -3.60378538 35.81276617 -3.59912109 33.18652344 C-3.59342381 29.81352536 -3.59670302 26.44060685 -3.60269356 23.06761169 C-3.6071677 19.86017573 -3.60403882 16.6527495 -3.6015625 13.4453125 C-3.60358673 12.2286792 -3.60561096 11.0120459 -3.60769653 9.75854492 C-3.60454437 8.64068604 -3.60139221 7.52282715 -3.59814453 6.37109375 C-3.59734894 5.38149658 -3.59655334 4.39189941 -3.59573364 3.37231445 C-3.41624797 0.20687904 -3.17856119 0.17099854 0 0 Z " fill="#F7F5F7" transform="translate(441.46875,504.8671875)"/>
<path d="M0 0 C0.66 0 1.32 0 2 0 C7.39287792 16.62804025 10.27501411 32.49076843 10 50 C-2.10256137 50.4529025 -13.773634 48.59462832 -25.5625 46.0625 C-26.31217041 45.90491211 -27.06184082 45.74732422 -27.83422852 45.58496094 C-32.25948735 44.59105786 -35.99821137 43.21900128 -40 41 C-39.67 40.34 -39.34 39.68 -39 39 C-26.79 38.67 -14.58 38.34 -2 38 C-1.71065101 25.86840823 -1.71065101 25.86840823 -1.43188477 13.73657227 C-1.39377736 12.22150718 -1.35530957 10.7064511 -1.31640625 9.19140625 C-1.29993042 8.39762573 -1.28345459 7.60384521 -1.26647949 6.78601074 C-1.1140718 1.1140718 -1.1140718 1.1140718 0 0 Z " fill="#4B1A3C" transform="translate(645,357)"/>
<path d="M0 0 C0.83647635 17.25619724 -3.03884784 33.58701836 -8 50 C-8.99 49.67 -9.98 49.34 -11 49 C-11.33 36.79 -11.66 24.58 -12 12 C-17.00618428 11.28483082 -21.26556358 10.88096808 -26.24609375 10.90234375 C-26.90207047 10.9037587 -27.55804718 10.90517365 -28.23390198 10.90663147 C-30.30181702 10.91216969 -32.36961842 10.92470998 -34.4375 10.9375 C-35.85090988 10.94252301 -37.26432148 10.9470845 -38.67773438 10.95117188 C-42.11852568 10.96211874 -45.55925172 10.97933962 -49 11 C-49.33 10.01 -49.66 9.02 -50 8 C-34.05308476 2.21981439 -17.01642284 -0.96928991 0 0 Z " fill="#4A193C" transform="translate(655,263)"/>
<path d="M0 0 C0.66 0.33 1.32 0.66 2 1 C1.98428955 2.25490234 1.98428955 2.25490234 1.96826172 3.53515625 C1.93393982 6.6736548 1.90898507 9.81205687 1.89013672 12.95068359 C1.87527121 14.96328119 1.849843 16.97579188 1.82421875 18.98828125 C1.81455078 20.91220703 1.81455078 20.91220703 1.8046875 22.875 C1.78897705 24.63457031 1.78897705 24.63457031 1.77294922 26.4296875 C1.94261265 30.79314636 1.94261265 30.79314636 4 38 C15.88 38.33 27.76 38.66 40 39 C40.33 39.99 40.66 40.98 41 42 C25.12874156 47.17122459 7.77164157 51.15888502 -9 50 C-9.82488368 33.25791636 -6.87750329 16.66629475 -1 1 C-0.67 0.67 -0.34 0.34 0 0 Z " fill="#4A193C" transform="translate(520,357)"/>
<path d="M0 0 C9.62017044 -0.70391491 18.43671632 0.40484308 27.875 2.3125 C28.93195068 2.52543701 29.98890137 2.73837402 31.07788086 2.95776367 C37.2232129 4.25648201 43.08271202 5.89374196 49 8 C48.67 8.99 48.34 9.98 48 11 C35.79 11 23.58 11 11 11 C10.3733896 16.63949356 9.87732194 21.6427935 9.90234375 27.22265625 C9.90556641 28.50205078 9.90878906 29.78144531 9.91210938 31.09960938 C9.92048828 32.40736328 9.92886719 33.71511719 9.9375 35.0625 C9.94252686 36.41861813 9.94708766 37.77473808 9.95117188 39.13085938 C9.96287921 42.42061994 9.97927789 45.71028594 10 49 C8.515 49.495 8.515 49.495 7 50 C5.6068784 45.01446331 4.28016602 40.01544497 3 35 C2.69191406 33.80117188 2.38382813 32.60234375 2.06640625 31.3671875 C-0.3456333 20.86500573 -0.29398459 10.72499352 0 0 Z " fill="#47163C" transform="translate(512,263)"/>
<path d="M0 0 C13.17960317 4.64201952 24.42778781 18.21969624 34 28 C32.34934935 32.25042541 29.18547754 35.11638542 26 38.25 C25.41911621 38.82556641 24.83823242 39.40113281 24.23974609 39.99414062 C19.43200424 44.69762456 14.39866405 48.98415165 9 53 C8.30648437 53.5259375 7.61296875 54.051875 6.8984375 54.59375 C2.3 58 2.3 58 0 58 C-1.45865986 55.08268027 -1.43789058 53.23242866 -1 50 C0.95789106 48.09734725 2.63936765 46.74166307 4.875 45.25 C11.25780447 40.7005262 16.61209202 35.71629063 22 30 C17.80407196 20.3753197 7.2821685 13.92784649 -1 8 C-0.67 5.36 -0.34 2.72 0 0 Z " fill="#49183C" transform="translate(668,306)"/>
<path d="M0 0 C2.0768658 2.13144037 3.63732212 4.02487467 5.3125 6.4375 C6.25810554 7.72368034 7.20867528 9.00622507 8.1640625 10.28515625 C8.63489258 10.91695801 9.10572266 11.54875977 9.59082031 12.19970703 C12.68448639 16.15201016 16.33794887 19.58208561 20 23 C28.89718513 19.22481824 35.0628204 9.96602582 40.015625 2.0546875 C42 0 42 0 45.109375 -0.3671875 C48 0 48 0 50 1 C46.56196234 10.76126271 37.92141631 18.53406668 31 26 C30.28328125 26.80566406 29.5665625 27.61132812 28.828125 28.44140625 C28.14234375 29.18261719 27.4565625 29.92382812 26.75 30.6875 C26.14671875 31.35136719 25.5434375 32.01523437 24.921875 32.69921875 C23 34 23 34 20.6171875 34.03125 C17.13739193 32.66010667 14.91341273 30.4655128 12.375 27.8125 C11.8601001 27.2865625 11.3452002 26.760625 10.81469727 26.21875 C5.0494059 20.20799606 -0.0030581 13.65116108 -5 7 C-5.59683594 6.2471875 -6.19367187 5.494375 -6.80859375 4.71875 C-8 3 -8 3 -8 1 C-5.05213197 -0.47393401 -3.27043674 -0.47403407 0 0 Z " fill="#49183C" transform="translate(562,419)"/>
<path d="M0 0 C1.45865986 2.91731973 1.43789058 4.76757134 1 8 C-0.95789106 9.90265275 -2.63936765 11.25833693 -4.875 12.75 C-11.25780447 17.2994738 -16.61209202 22.28370937 -22 28 C-17.91406679 37.6295507 -7.3447622 44.32048504 1 50 C0.67 52.64 0.34 55.28 0 58 C-4.56777139 56.5339064 -7.76660933 53.92939328 -11.3125 50.8125 C-11.88500488 50.31709717 -12.45750977 49.82169434 -13.04736328 49.3112793 C-14.18606343 48.32475937 -15.32252309 47.33564642 -16.45654297 46.34375 C-17.75233023 45.21562392 -19.06384675 44.10560011 -20.37890625 43 C-30.08249668 34.79657326 -30.08249668 34.79657326 -33 30 C-32.35723602 25.46297683 -29.46516252 23.01305688 -26.3125 19.9375 C-25.74031738 19.37184326 -25.16813477 18.80618652 -24.57861328 18.22338867 C-5.78725596 0 -5.78725596 0 0 0 Z " fill="#49173C" transform="translate(498,306)"/>
<path d="M0 0 C5.91651913 2.86484084 9.89076502 6.84459372 14.109375 11.796875 C16.04778105 14.05567875 18.05199914 16.24283113 20.0625 18.4375 C23.84975921 22.67509608 26.99449524 27.18436169 30 32 C26.66746126 34.97548101 26.66746126 34.97548101 24.0859375 35.0703125 C20.8415618 33.40559538 18.86360145 30.67035807 16.625 27.875 C16.13821777 27.28549561 15.65143555 26.69599121 15.14990234 26.08862305 C13.1190554 23.62753491 11.1162547 21.14556057 9.125 18.65234375 C6.28972586 15.17470281 4.20389198 13.48331306 0 12 C-7.53354555 19.194536 -14.1838807 26.31003352 -20 35 C-25.75 34.25 -25.75 34.25 -28 32 C-19.63394307 20.34949109 -10.27656018 10.0115486 0 0 Z " fill="#49173C" transform="translate(582,216)"/>
<path d="M0 0 C7.28413195 3.28038275 13.57466851 9.21297974 19 15 C17.50198648 18.61477175 15.42462583 20.68620463 12.5 23.25 C11.7059375 23.95640625 10.911875 24.6628125 10.09375 25.390625 C8 27 8 27 6 27 C6 27.66 6 28.32 6 29 C3 31 3 31 0.98828125 31.01953125 C-2.1718816 29.39909411 -2.61440158 26.9415498 -3.8125 23.6875 C-4.25207031 22.53636719 -4.69164062 21.38523437 -5.14453125 20.19921875 C-6.00886021 16.96686525 -6.19322224 16.00060299 -5 13 C-4.41025391 11.39898437 -4.41025391 11.39898437 -3.80859375 9.765625 C-3.35613281 8.60546875 -2.90367187 7.4453125 -2.4375 6.25 C-1.98246094 5.07953125 -1.52742187 3.9090625 -1.05859375 2.703125 C-0.53458984 1.36507813 -0.53458984 1.36507813 0 0 Z " fill="#47163C" transform="translate(664,319)"/>
<path d="M0 0 C1.06863281 0.45503906 2.13726563 0.91007812 3.23828125 1.37890625 C4.45064453 1.90291016 4.45064453 1.90291016 5.6875 2.4375 C4.51252572 9.91932153 -2.96139752 16.42084142 -8.3125 21.4375 C-12.69744368 19.83350635 -15.10473523 16.5444873 -18 13.0625 C-18.74733398 12.19625 -18.74733398 12.19625 -19.50976562 11.3125 C-21.96295987 8.39662733 -23.58237105 6.17264339 -24.3125 2.4375 C-22.25837752 1.39991251 -20.19380395 0.3829966 -18.125 -0.625 C-16.97644531 -1.19347656 -15.82789063 -1.76195312 -14.64453125 -2.34765625 C-9.00641127 -4.40328968 -5.32685792 -2.28293911 0 0 Z " fill="#47153C" transform="translate(592.3125,413.5625)"/>
<path d="M0 0 C6.94819246 14.52803879 6.94819246 14.52803879 5.0625 19.9375 C4.40633103 21.30712254 3.71845853 22.66200114 3 24 C2.41893159 25.51383612 1.85551618 27.03460154 1.3125 28.5625 C0.879375 29.696875 0.44625 30.83125 0 32 C-11.86816556 24.41083291 -11.86816556 24.41083291 -16 20 C-16 19.34 -16 18.68 -16 18 C-16.99 17.67 -17.98 17.34 -19 17 C-17.47229036 13.24473608 -15.21377694 11.14969375 -12.1875 8.5 C-10.90939453 7.37078125 -10.90939453 7.37078125 -9.60546875 6.21875 C-2.3028169 0 -2.3028169 0 0 0 Z " fill="#48163C" transform="translate(502,319)"/>
<path d="M0 0 C4.13707605 1.60176579 6.76375967 4.6099394 9.6875 7.8125 C10.18572266 8.33392578 10.68394531 8.85535156 11.19726562 9.39257812 C14.04273865 12.48514786 15.66324081 14.76309949 16 19 C4.12852079 25.12993877 4.12852079 25.12993877 -0.6875 24.8359375 C-2.93471168 24.06345848 -4.91559353 23.13694899 -7 22 C-8.35011099 21.427834 -9.70403747 20.86454453 -11.0625 20.3125 C-12.5165625 19.6628125 -12.5165625 19.6628125 -14 19 C-12.82502572 11.51817847 -5.35110248 5.01665858 0 0 Z " fill="#48163C" transform="translate(582,235)"/>
</svg>
