<?xml version="1.0" encoding="UTF-8"?>
<svg version="1.1" xmlns="http://www.w3.org/2000/svg" width="239" height="282">
<path d="M0 0 C78.87 0 157.74 0 239 0 C239 93.06 239 186.12 239 282 C160.13 282 81.26 282 0 282 C0 188.94 0 95.88 0 0 Z " fill="#F0E1C2" transform="translate(0,0)"/>
<path d="M0 0 C4.34447434 4.45880261 6.95103296 9.79948288 7.9375 15.9375 C5.96873654 28.18758378 -1.8748224 38.36156498 -8.625 48.4375 C-7.45481323 48.45937378 -7.45481323 48.45937378 -6.26098633 48.48168945 C-2.65271302 48.55714511 0.95473112 48.65347716 4.5625 48.75 C5.78904297 48.77255859 7.01558594 48.79511719 8.27929688 48.81835938 C22.8379782 49.24090685 33.52752474 51.17699973 43.75 61.9375 C47.80525075 68.17634731 48.81998696 73.16937961 48.375 80.4375 C49.550625 80.623125 49.550625 80.623125 50.75 80.8125 C53.375 81.4375 53.375 81.4375 55.375 83.4375 C55.189375 82.138125 55.00375 80.83875 54.8125 79.5 C54.49609375 77.28515625 54.49609375 77.28515625 54.375 75.4375 C55.375 74.4375 55.375 74.4375 57.9375 74.375 C58.741875 74.395625 59.54625 74.41625 60.375 74.4375 C60.75718767 76.09364657 61.08895102 77.76207024 61.375 79.4375 C61.045 79.7675 60.715 80.0975 60.375 80.4375 C60.26631488 81.91644069 60.21922538 83.4000186 60.19921875 84.8828125 C60.17537109 85.79546875 60.15152344 86.708125 60.12695312 87.6484375 C60.08450752 89.56749338 60.0529774 91.48682663 60.03320312 93.40625 C59.84707525 99.58742692 59.01604359 103.38831801 55.375 108.4375 C51.31048387 111.4375 51.31048387 111.4375 48.375 111.4375 C48.42914063 112.31277344 48.48328125 113.18804687 48.5390625 114.08984375 C48.24359786 120.11872935 44.85678955 125.63653016 40.88671875 130.1171875 C39.4375 131.375 39.4375 131.375 36.375 133.4375 C35.385 134.13875 34.395 134.84 33.375 135.5625 C27.92037776 138.60521445 21.44606378 139.32601537 15.375 140.4375 C16.16132813 141.0459375 16.94765625 141.654375 17.7578125 142.28125 C20.4758887 144.52062024 21.93439907 146.23616461 23.375 149.4375 C23.2109375 151.4609375 23.2109375 151.4609375 22.375 153.4375 C8.85335642 162.27857465 -14.70148957 161.19892583 -29.9921875 158.21484375 C-34.50577722 156.88219634 -38.56494218 154.79089635 -42.625 152.4375 C-42.09803499 148.57531342 -41.19944175 146.48636232 -38.5625 143.625 C-38.01464844 143.02042969 -37.46679688 142.41585937 -36.90234375 141.79296875 C-36.48082031 141.34566406 -36.05929688 140.89835938 -35.625 140.4375 C-36.6871875 140.21835938 -37.749375 139.99921875 -38.84375 139.7734375 C-46.89373843 138.00908255 -53.64230933 136.46597657 -59.625 130.4375 C-60.511875 129.591875 -61.39875 128.74625 -62.3125 127.875 C-64.69998752 124.8866878 -65.69676047 121.5907495 -66.9375 118 C-68.94535176 112.36775131 -71.09394499 109.34578522 -75.953125 105.90234375 C-78.42997461 103.73220682 -78.53648951 101.45708152 -78.81445312 98.25512695 C-78.84474609 97.48644287 -78.87503906 96.71775879 -78.90625 95.92578125 C-78.94363281 95.08595703 -78.98101562 94.24613281 -79.01953125 93.38085938 C-79.09031279 91.61525312 -79.16061912 89.84962775 -79.23046875 88.08398438 C-79.28654297 86.83004883 -79.28654297 86.83004883 -79.34375 85.55078125 C-79.37404297 84.78548096 -79.40433594 84.02018066 -79.43554688 83.23168945 C-79.43712803 81.41572365 -79.43712803 81.41572365 -80.625 80.4375 C-80.75 77.9375 -80.75 77.9375 -80.625 75.4375 C-79.625 74.4375 -79.625 74.4375 -77.0625 74.375 C-76.258125 74.395625 -75.45375 74.41625 -74.625 74.4375 C-74.02767181 77.20014289 -73.625 79.59782769 -73.625 82.4375 C-72.635 81.4475 -72.635 81.4475 -71.625 80.4375 C-70.635 80.4375 -69.645 80.4375 -68.625 80.4375 C-68.59921875 79.880625 -68.5734375 79.32375 -68.546875 78.75 C-68.10126831 72.75456452 -66.57427498 68.67008464 -63.625 63.4375 C-64.5325 63.52 -65.44 63.6025 -66.375 63.6875 C-69.625 63.4375 -69.625 63.4375 -71.6875 62.0703125 C-74.6199384 58.08550709 -75.07056608 53.87591609 -75.875 49.0625 C-76.04773438 48.12921875 -76.22046875 47.1959375 -76.3984375 46.234375 C-78.07055538 36.86520657 -78.07055538 36.86520657 -77.625 32.4375 C-75.375 30.0625 -75.375 30.0625 -72.625 28.4375 C-71.305 28.4375 -69.985 28.4375 -68.625 28.4375 C-68.76808594 27.38949219 -68.76808594 27.38949219 -68.9140625 26.3203125 C-69.02492188 25.41023438 -69.13578125 24.50015625 -69.25 23.5625 C-69.36601563 22.65757813 -69.48203125 21.75265625 -69.6015625 20.8203125 C-69.60929687 20.03398438 -69.61703125 19.24765625 -69.625 18.4375 C-67.1181838 15.9306838 -65.23336312 15.61470646 -61.8125 14.75 C-60.77480469 14.47800781 -59.73710938 14.20601562 -58.66796875 13.92578125 C-55.56555152 13.42796077 -53.6048504 13.4962209 -50.625 14.4375 C-47.86276722 17.19973278 -48.04643709 19.64456617 -47.625 23.4375 C-46.903125 23.086875 -46.18125 22.73625 -45.4375 22.375 C-42.22722613 21.30490871 -40.78285567 21.27407949 -37.625 22.4375 C-33.14976126 26.91273874 -32.26808504 33.6496296 -31 39.625 C-30.73960938 40.83542969 -30.47921875 42.04585937 -30.2109375 43.29296875 C-29.625 46.4375 -29.625 46.4375 -29.625 49.4375 C-25.17 48.9425 -25.17 48.9425 -20.625 48.4375 C-21.60339844 47.02210937 -21.60339844 47.02210937 -22.6015625 45.578125 C-37.83386979 23.32135148 -37.83386979 23.32135148 -37.2109375 13.04296875 C-35.59963875 5.87806029 -30.50259 0.52625826 -24.625 -3.5625 C-15.72901211 -6.49648332 -7.75506921 -4.61611262 0 0 Z " fill="#342C20" transform="translate(127.625,32.5625)"/>
<path d="M0 0 C1.15494965 -0.00960754 2.30989929 -0.01921509 3.49984741 -0.02911377 C4.73433624 -0.03336365 5.96882507 -0.03761353 7.24072266 -0.04199219 C9.16387802 -0.0505423 9.16387802 -0.0505423 11.12588501 -0.05926514 C13.83409009 -0.06973351 16.54226585 -0.07560363 19.25048828 -0.07910156 C22.70238929 -0.08458415 26.15389549 -0.10862432 29.60567284 -0.13707352 C32.92151446 -0.16029183 36.23730405 -0.16215481 39.55322266 -0.16699219 C40.78366302 -0.17933899 42.01410339 -0.19168579 43.28182983 -0.20440674 C50.88907607 -0.18474687 57.28341282 0.1048817 63.40478516 5.09863281 C68.7593367 15.18990302 68.68619777 30.95560583 65.84228516 41.91113281 C63.93209203 47.21525046 61.01881077 49.06121002 56.18969727 51.73168945 C50.6269705 54.06564187 44.65296887 53.60889167 38.72119141 53.59472656 C36.80015846 53.60258934 36.80015846 53.60258934 34.84031677 53.61061096 C32.13799129 53.61951058 29.43596183 53.61715546 26.73364258 53.60717773 C23.28940324 53.59569287 19.84618997 53.61590631 16.4020853 53.64509487 C13.09173505 53.66796948 9.78161855 53.66098535 6.47119141 53.65722656 C4.63023643 53.67407753 4.63023643 53.67407753 2.75209045 53.69126892 C-4.82036386 53.62992591 -10.69029568 53.06265927 -16.51902771 47.74925232 C-22.22210938 41.48381468 -21.18347587 33.75849119 -21.22021484 25.78613281 C-21.24083984 24.67496094 -21.26146484 23.56378906 -21.28271484 22.41894531 C-21.31599603 15.42989636 -21.08642639 10.05421502 -16.57568359 4.41894531 C-11.35668764 0.24949951 -6.48194425 0.04379125 0 0 Z " fill="#ECDDBF" transform="translate(94.97021484375,99.8388671875)"/>
<path d="M0 0 C1.27265717 -0.0004985 2.54531433 -0.00099701 3.85653687 -0.00151062 C6.53097809 0.00081726 9.20460719 0.0088522 11.87890625 0.02709961 C15.28231864 0.04983048 18.68528713 0.05031426 22.08875465 0.04358196 C25.37170247 0.03941238 28.65457349 0.05142951 31.9375 0.0625 C33.14709381 0.06158859 34.35668762 0.06067719 35.60293579 0.05973816 C45.6308665 0.14321679 56.27485628 0.85071416 64.0625 7.93359375 C70.17957417 14.65333532 71.80258882 21.0136421 71.8046875 29.8828125 C71.81610779 31.23073128 71.81610779 31.23073128 71.82775879 32.60588074 C71.83851872 34.49935136 71.84142968 36.39288114 71.83691406 38.28637695 C71.8359437 41.15743931 71.87757065 44.02580837 71.921875 46.89648438 C71.99014276 57.31676673 71.98223763 66.04538002 64.68774414 74.20751953 C55.30369208 83.53947931 41.98706289 83.51667229 29.63671875 83.56640625 C28.52467575 83.57210632 27.41263275 83.5778064 26.26689148 83.5836792 C23.92118266 83.59309052 21.57546084 83.59964772 19.22973633 83.60351562 C15.67700632 83.61320335 12.12485977 83.64425736 8.57226562 83.67578125 C-21.94215176 83.8204865 -21.94215176 83.8204865 -31.6640625 74.36328125 C-37.88306765 67.80811366 -39.13472837 61.3179863 -39.16796875 52.625 C-39.17795395 51.70419144 -39.18793915 50.78338287 -39.19822693 49.83467102 C-39.21335292 47.89413925 -39.22045444 45.95353012 -39.2199707 44.01293945 C-39.22652164 41.06914442 -39.28103032 38.12874475 -39.33789062 35.18554688 C-39.50503283 16.65088509 -39.50503283 16.65088509 -32.6640625 9.36328125 C-23.77860725 0.34820059 -12.00354716 -0.09170094 0 0 Z M-25.6640625 21.36328125 C-28.47098803 27.19597736 -27.95811155 33.47607141 -27.9140625 39.80078125 C-27.92179687 40.90744141 -27.92953125 42.01410156 -27.9375 43.15429688 C-28.116699 52.80405702 -28.116699 52.80405702 -24.11328125 61.2890625 C-23.24123047 61.97548828 -23.24123047 61.97548828 -22.3515625 62.67578125 C-21.77792969 63.14628906 -21.20429687 63.61679688 -20.61328125 64.1015625 C-16.43588109 66.80557102 -12.78173615 67.61744767 -7.83911133 67.66967773 C-6.69054153 67.68566513 -5.54197174 67.70165253 -4.3585968 67.71812439 C-2.50853279 67.72616844 -2.50853279 67.72616844 -0.62109375 67.734375 C0.65768143 67.74340347 1.9364566 67.75243195 3.25398254 67.76173401 C5.95979325 67.77819328 8.66548073 67.78591785 11.37133789 67.78881836 C14.81331426 67.79418379 18.25410673 67.83179755 21.69575024 67.87756252 C25.00679323 67.91474577 28.31766202 67.91586063 31.62890625 67.921875 C33.46378853 67.95117348 33.46378853 67.95117348 35.33573914 67.98106384 C43.04952276 67.94079841 48.89972687 66.78533133 55.3359375 62.36328125 C61.75474974 54.74094171 60.84837397 43.75184938 60.3359375 34.36328125 C59.85651406 28.94579635 59.27733439 24.13745231 56.7109375 19.30078125 C49.62127893 13.51711242 41.6069956 13.93462122 32.89453125 14 C31.61288589 13.9995015 30.33124054 13.99900299 29.01075745 13.99848938 C26.31019152 13.99857862 23.60992712 14.00890944 20.90942383 14.02709961 C17.46425249 14.04980809 14.01951974 14.05032154 10.57429409 14.04358196 C7.26432399 14.03942022 3.95448633 14.05142504 0.64453125 14.0625 C-1.19946007 14.06113289 -1.19946007 14.06113289 -3.08070374 14.05973816 C-12.26144381 14.13551346 -19.03248557 14.5774816 -25.6640625 21.36328125 Z " fill="#379392" transform="translate(101.6640625,85.63671875)"/>
<path d="M0 0 C4.41075942 3.08187678 7.16960287 6.88289978 8.20703125 12.23046875 C9.18165541 24.42363911 -0.26881472 35.94888391 -7.171875 45.27734375 C-7.831875 46.26734375 -8.491875 47.25734375 -9.171875 48.27734375 C-9.831875 48.27734375 -10.491875 48.27734375 -11.171875 48.27734375 C-16.47517867 41.82662345 -20.80142715 34.38073315 -25.171875 27.27734375 C-26.1309375 25.76140625 -26.1309375 25.76140625 -27.109375 24.21484375 C-29.17055044 18.51629989 -28.76779996 13.19057652 -26.984375 7.46484375 C-24.45679816 3.01979482 -22.03395799 0.14631581 -17.359375 -2.03515625 C-10.68988928 -3.47367278 -5.95182893 -3.29225183 0 0 Z " fill="#DA8735" transform="translate(123.171875,33.72265625)"/>
<path d="M0 0 C0.75 2.125 0.75 2.125 1 5 C-1.10821828 9.21643655 -3.57731671 11.52153299 -7.25 14.4375 C-10.44339162 17.15814198 -10.44339162 17.15814198 -11.75 21.125 C-10.83521128 25.85140839 -9.38805436 30.31534109 -7.890625 34.88671875 C-6.85484709 38.50739854 -6.65403332 41.28085817 -7 45 C-9.27734375 45.2890625 -9.27734375 45.2890625 -12 45 C-13.87890625 43.0234375 -13.87890625 43.0234375 -15.5625 40.375 C-16.44808594 39.00988281 -16.44808594 39.00988281 -17.3515625 37.6171875 C-17.89554688 36.75351563 -18.43953125 35.88984375 -19 35 C-19.80925313 33.83107882 -20.62103576 32.66389583 -21.4375 31.5 C-23 29 -23 29 -23 27 C-30.65914596 31.09956118 -30.65914596 31.09956118 -34.953125 38.203125 C-35.16473272 41.17974032 -35.21320631 44.0250283 -35 47 C-36.890625 46.69140625 -36.890625 46.69140625 -39 46 C-40.75 42.9375 -40.75 42.9375 -42 40 C-44.31 40.66 -46.62 41.32 -49 42 C-47.125 37.25 -47.125 37.25 -46 35 C-48.64 33.02 -51.28 31.04 -54 29 C-53.505 27.515 -53.505 27.515 -53 26 C-52.07058594 26.15339844 -51.14117187 26.30679688 -50.18359375 26.46484375 C-43.09087514 27.60515306 -43.09087514 27.60515306 -36.51171875 25.5078125 C-34.81133086 23.75461753 -33.34893495 22.0335448 -32 20 C-35.88525194 14.77500601 -40.50153159 11.08840507 -45.671875 7.1484375 C-48.00157288 4.99854852 -48.69230226 4.09096363 -49 1 C-45.07769986 -0.0779371 -42.96074679 0.05646914 -39.25 1.6875 C-38.38375 2.05746094 -37.5175 2.42742188 -36.625 2.80859375 C-34.9306792 3.57759352 -33.24257251 4.36050635 -31.5625 5.16015625 C-30.799375 5.51980469 -30.03625 5.87945312 -29.25 6.25 C-28.57453125 6.58515625 -27.8990625 6.9203125 -27.203125 7.265625 C-24.25104311 8.2496523 -22.09807874 8.35959843 -19 8 C-16.22311946 6.33416077 -16.22311946 6.33416077 -13.75 4.0625 C-8.47054092 -0.4730353 -7.02213441 -1.17035573 0 0 Z " fill="#1B4F50" transform="translate(192,36)"/>
<path d="M0 0 C4.34447434 4.45880261 6.95103296 9.79948288 7.9375 15.9375 C5.96873654 28.18758378 -1.8748224 38.36156498 -8.625 48.4375 C-7.45481323 48.45937378 -7.45481323 48.45937378 -6.26098633 48.48168945 C-2.65271302 48.55714511 0.95473112 48.65347716 4.5625 48.75 C5.78904297 48.77255859 7.01558594 48.79511719 8.27929688 48.81835938 C22.8379782 49.24090685 33.52752474 51.17699973 43.75 61.9375 C47.80525075 68.17634731 48.81998696 73.16937961 48.375 80.4375 C49.550625 80.623125 49.550625 80.623125 50.75 80.8125 C53.375 81.4375 53.375 81.4375 55.375 83.4375 C55.189375 82.138125 55.00375 80.83875 54.8125 79.5 C54.49609375 77.28515625 54.49609375 77.28515625 54.375 75.4375 C55.375 74.4375 55.375 74.4375 57.9375 74.375 C58.741875 74.395625 59.54625 74.41625 60.375 74.4375 C60.75718767 76.09364657 61.08895102 77.76207024 61.375 79.4375 C61.045 79.7675 60.715 80.0975 60.375 80.4375 C60.13798761 83.29627909 59.95280818 86.13633297 59.8125 89 C59.74772461 90.20946289 59.74772461 90.20946289 59.68164062 91.44335938 C59.57524738 93.44118805 59.47459112 95.4393207 59.375 97.4375 C58.385 97.4375 57.395 97.4375 56.375 97.4375 C56.1275 96.220625 55.88 95.00375 55.625 93.75 C54.65615233 89.84692794 53.2109991 87.36212408 50.375 84.4375 C49.715 84.1075 49.055 83.7775 48.375 83.4375 C48.375 89.3775 48.375 95.3175 48.375 101.4375 C47.385 101.9325 47.385 101.9325 46.375 102.4375 C46.3656543 101.70225098 46.35630859 100.96700195 46.34667969 100.20947266 C46.29246722 96.82650851 46.20892029 93.4448525 46.125 90.0625 C46.11082031 88.90621094 46.09664063 87.74992187 46.08203125 86.55859375 C45.79739676 76.48253285 43.85771304 67.58008972 36.375 60.4375 C26.76447919 54.07263753 16.08622169 54.15428814 4.93359375 54.2421875 C3.55640368 54.24592543 2.17921091 54.24876871 0.80201721 54.25076294 C-2.79334065 54.25833806 -6.38853261 54.27793259 -9.98382568 54.3001709 C-13.66432451 54.32076253 -17.34485059 54.32979291 -21.02539062 54.33984375 C-28.22533541 54.36118539 -35.42514431 54.3952457 -42.625 54.4375 C-42.955 53.1175 -43.285 51.7975 -43.625 50.4375 C-39.57452424 49.08734141 -36.8329832 49.81665002 -32.625 50.4375 C-32.955 49.6125 -33.285 48.7875 -33.625 47.9375 C-34.79282809 43.8501017 -34.7708885 40.66826656 -34.625 36.4375 C-33.965 36.4375 -33.305 36.4375 -32.625 36.4375 C-32.11987756 38.04006108 -31.62108373 39.64461792 -31.125 41.25 C-30.8465625 42.14332031 -30.568125 43.03664062 -30.28125 43.95703125 C-29.625 46.4375 -29.625 46.4375 -29.625 49.4375 C-25.17 48.9425 -25.17 48.9425 -20.625 48.4375 C-21.60339844 47.02210937 -21.60339844 47.02210937 -22.6015625 45.578125 C-37.83386979 23.32135148 -37.83386979 23.32135148 -37.2109375 13.04296875 C-35.59963875 5.87806029 -30.50259 0.52625826 -24.625 -3.5625 C-15.72901211 -6.49648332 -7.75506921 -4.61611262 0 0 Z M-30.4609375 6.62109375 C-33.42899173 11.25245354 -33.3939171 17.14466284 -32.625 22.4375 C-31.05963255 26.39424061 -28.92593564 29.86741669 -26.625 33.4375 C-25.94050781 34.50097656 -25.25601563 35.56445312 -24.55078125 36.66015625 C-21.69101198 41.01060008 -18.7851953 45.29891606 -15.625 49.4375 C-11.82649662 48.17133221 -11.36907668 46.87089465 -9.3125 43.5 C-8.70277344 42.50742188 -8.09304687 41.51484375 -7.46484375 40.4921875 C-6.85769531 39.48414063 -6.25054687 38.47609375 -5.625 37.4375 C-5.06941406 36.53257813 -4.51382813 35.62765625 -3.94140625 34.6953125 C-2.47601487 32.29075507 -1.04889616 29.86675314 0.375 27.4375 C1.303125 25.9525 1.303125 25.9525 2.25 24.4375 C4.0968029 19.51269228 4.4190724 14.39570514 2.6484375 9.37890625 C0.11418624 4.58855326 -3.24719624 1.72279933 -7.9375 -0.8125 C-17.26526355 -3.41559681 -24.37700885 -0.65033969 -30.4609375 6.62109375 Z " fill="#3C3326" transform="translate(127.625,32.5625)"/>
<path d="M0 0 C2.76223278 2.76223278 2.57856291 5.20706617 3 9 C3.721875 8.649375 4.44375 8.29875 5.1875 7.9375 C8.39777387 6.86740871 9.84214433 6.83657949 13 8 C16.88973625 11.88973625 18 16.63280518 18 22 C17.34 22 16.68 22 16 22 C16.66 26.62 17.32 31.24 18 36 C15.36 36 12.72 36 10 36 C9.72285156 34.85660156 9.44570312 33.71320313 9.16015625 32.53515625 C8.79445622 31.04422535 8.42856071 29.55334239 8.0625 28.0625 C7.88009766 27.30775391 7.69769531 26.55300781 7.50976562 25.77539062 C6.86160821 22.08720179 6.86160821 22.08720179 5 19 C4.88679144 24.08303686 4.88679144 24.08303686 6 29 C6.12781786 31.67394964 6.04391871 34.32095857 6 37 C4.98679687 37.39832031 4.98679687 37.39832031 3.953125 37.8046875 C3.06109375 38.15789062 2.1690625 38.51109375 1.25 38.875 C-0.07257813 39.39707031 -0.07257813 39.39707031 -1.421875 39.9296875 C-3.6740248 40.8646709 -5.83649459 41.87780794 -8 43 C-9.51201537 38.70613817 -10.62960139 34.45446876 -11.5625 30 C-11.81128906 28.824375 -12.06007813 27.64875 -12.31640625 26.4375 C-12.94053831 23.29900738 -13.49428946 20.15948679 -14 17 C-15.36125 16.7834375 -15.36125 16.7834375 -16.75 16.5625 C-19.21476956 16.13590527 -21.58847107 15.64925779 -24 15 C-22.02 14.67 -20.04 14.34 -18 14 C-18.09539063 13.30132812 -18.19078125 12.60265625 -18.2890625 11.8828125 C-18.39992188 10.97273438 -18.51078125 10.06265625 -18.625 9.125 C-18.74101563 8.22007813 -18.85703125 7.31515625 -18.9765625 6.3828125 C-18.98429687 5.59648438 -18.99203125 4.81015625 -19 4 C-16.4931838 1.4931838 -14.60836312 1.17720646 -11.1875 0.3125 C-9.63095703 -0.09548828 -9.63095703 -0.09548828 -8.04296875 -0.51171875 C-4.94055152 -1.00953923 -2.9798504 -0.9412791 0 0 Z " fill="#3F3224" transform="translate(77,47)"/>
<path d="M0 0 C1.31534225 -0.01283524 2.63068451 -0.02567047 3.98588562 -0.03889465 C5.42523826 -0.0470641 6.86459518 -0.05450744 8.30395508 -0.0612793 C9.39362296 -0.06739259 9.39362296 -0.06739259 10.50530434 -0.07362938 C14.35297993 -0.09447921 18.20062001 -0.10878363 22.04833984 -0.11816406 C26.00822352 -0.12920538 29.96754169 -0.16358128 33.92722607 -0.20333576 C36.98402394 -0.22957943 40.04068889 -0.23786288 43.09758949 -0.24144554 C44.55633663 -0.24629428 46.01507852 -0.25785917 47.47371483 -0.27648354 C63.80370707 -0.47197225 63.80370707 -0.47197225 70.17741394 5.65995789 C75.70250159 11.91115195 74.95477514 18.71463333 75.04101562 26.58081055 C75.06250924 28.05110283 75.09650997 29.52127017 75.14355469 30.9909668 C75.40149297 39.13667603 75.51048111 45.81358145 70.2565918 52.54589844 C63.14934741 59.69918252 53.41778351 60.39130469 43.79212952 60.48054504 C42.71064133 60.47963364 41.62915314 60.47872223 40.51489258 60.4777832 C39.37495346 60.48206833 38.23501434 60.48635345 37.06053162 60.49076843 C34.66112937 60.49648533 32.26170979 60.49703159 29.86230469 60.49267578 C26.21299403 60.48951452 22.56449398 60.51301394 18.9152832 60.53833008 C16.57348734 60.54060336 14.23168932 60.54130643 11.88989258 60.5402832 C10.27069664 60.55409782 10.27069664 60.55409782 8.61878967 60.56819153 C0.91295879 60.52165005 -6.8873675 60.00776901 -13.05541992 54.9855957 C-13.67288086 54.20313477 -14.2903418 53.42067383 -14.92651367 52.61450195 C-15.56717773 51.82946289 -16.2078418 51.04442383 -16.86791992 50.2355957 C-19.62715931 46.43893994 -19.55520056 43.31072844 -19.60229492 38.75512695 C-19.61036667 38.01752136 -19.61843842 37.27991577 -19.62675476 36.5199585 C-19.64059418 34.95644479 -19.65131698 33.39290089 -19.65917969 31.8293457 C-19.67634883 29.4498475 -19.72022754 27.07175503 -19.7644043 24.69262695 C-19.7745355 23.17180381 -19.78305027 21.65096888 -19.78979492 20.13012695 C-19.80730301 19.42366028 -19.8248111 18.7171936 -19.84284973 17.98931885 C-19.81743453 12.13586103 -17.77599688 8.6597524 -13.76635742 4.5324707 C-9.01095482 0.7408297 -5.99027306 0.05085961 0 0 Z M-14.36401367 10.17700195 C-17.17093921 16.00969806 -16.65806272 22.28979211 -16.61401367 28.61450195 C-16.62174805 29.72116211 -16.62948242 30.82782227 -16.63745117 31.96801758 C-16.81665017 41.61777772 -16.81665017 41.61777772 -12.81323242 50.1027832 C-11.94118164 50.78920898 -11.94118164 50.78920898 -11.05151367 51.48950195 C-10.47788086 51.96000977 -9.90424805 52.43051758 -9.31323242 52.9152832 C-5.13583227 55.61929172 -1.48168732 56.43116838 3.4609375 56.48339844 C4.60950729 56.49938583 5.75807709 56.51537323 6.94145203 56.53184509 C8.79151604 56.53988914 8.79151604 56.53988914 10.67895508 56.5480957 C11.95773026 56.55712418 13.23650543 56.56615265 14.55403137 56.57545471 C17.25984207 56.59191398 19.96552956 56.59963855 22.67138672 56.60253906 C26.11336309 56.6079045 29.55415556 56.64551826 32.99579906 56.69128323 C36.30684206 56.72846648 39.61771084 56.72958133 42.92895508 56.7355957 C44.76383736 56.76489418 44.76383736 56.76489418 46.63578796 56.79478455 C54.34957158 56.75451911 60.1997757 55.59905203 66.63598633 51.17700195 C73.05479857 43.55466242 72.1484228 32.56557008 71.63598633 23.17700195 C71.15656289 17.75951705 70.57738322 12.95117302 68.01098633 8.11450195 C60.92132776 2.33083312 52.90704443 2.74834192 44.19458008 2.8137207 C42.91293472 2.8132222 41.63128937 2.81272369 40.31080627 2.81221008 C37.61024035 2.81229932 34.90997595 2.82263015 32.20947266 2.84082031 C28.76430132 2.86352879 25.31956857 2.86404225 21.87434292 2.85730267 C18.56437282 2.85314092 15.25453515 2.86514574 11.94458008 2.8762207 C10.10058876 2.87485359 10.10058876 2.87485359 8.21934509 2.87345886 C-0.96139498 2.94923416 -7.73243674 3.3912023 -14.36401367 10.17700195 Z " fill="#382D21" transform="translate(90.364013671875,96.822998046875)"/>
<path d="M0 0 C1.42892578 0.34804687 1.42892578 0.34804687 2.88671875 0.703125 C9.40455632 1.94602706 15.6925423 2.1967713 22.32421875 2.203125 C23.29399658 2.21182617 24.26377441 2.22052734 25.26293945 2.22949219 C31.30692758 2.20677625 36.73395679 1.46738168 42.57421875 -0.046875 C45.32421875 -0.546875 45.32421875 -0.546875 47.57421875 -0.046875 C49.63050001 1.81004381 50.95996967 3.64705489 52.57421875 5.953125 C52.57421875 6.613125 52.57421875 7.273125 52.57421875 7.953125 C53.23421875 8.283125 53.89421875 8.613125 54.57421875 8.953125 C38.44840169 16.45181194 16.79259822 17.7229044 -0.42578125 12.953125 C-3.52391258 11.78854765 -6.49012888 10.48025729 -9.42578125 8.953125 C-8.76578125 8.623125 -8.10578125 8.293125 -7.42578125 7.953125 C-7.30203125 7.355 -7.17828125 6.756875 -7.05078125 6.140625 C-5.99515798 2.44594356 -3.99606321 -0.07721861 0 0 Z " fill="#3A9594" transform="translate(95.42578125,177.046875)"/>
<path d="M0 0 C3.02300515 7.72283347 4.75456817 15.82275682 6 24 C9.19398323 24 10.26859824 23.48985551 13 22 C15.73140176 20.51014449 16.80601677 20 20 20 C19.855625 19.28714844 19.71125 18.57429688 19.5625 17.83984375 C18.5202768 12.46226157 17.7566048 7.47639208 18 2 C18.66 1.67 19.32 1.34 20 1 C20.67364661 3.08108685 21.33866798 5.1649671 22 7.25 C22.37125 8.41015625 22.7425 9.5703125 23.125 10.765625 C24 14 24 14 24 18 C23.01 18.495 23.01 18.495 22 19 C22 20.32 22 21.64 22 23 C21.34773438 23.23074219 20.69546875 23.46148437 20.0234375 23.69921875 C9.58020488 27.59617723 5.82405859 31.51244982 1.1015625 41.55078125 C0.73804688 42.35902344 0.37453125 43.16726562 0 44 C-0.66 44 -1.32 44 -2 44 C-2.34833144 39.12335991 -1.41685712 36.22949995 1 32 C0.0925 32.0825 -0.815 32.165 -1.75 32.25 C-5 32 -5 32 -7.0625 30.6328125 C-9.9949384 26.64800709 -10.44556608 22.43841609 -11.25 17.625 C-11.42273437 16.69171875 -11.59546875 15.7584375 -11.7734375 14.796875 C-13.42999168 5.51491267 -13.42999168 5.51491267 -13 1 C-9.07039331 -2.92960669 -4.66871275 -2.33435637 0 0 Z " fill="#32291D" transform="translate(63,64)"/>
<path d="M0 0 C0.33 1.32 0.66 2.64 1 4 C1.66 4 2.32 4 3 4 C3.00410889 5.15935059 3.00821777 6.31870117 3.01245117 7.51318359 C3.03438897 11.85607041 3.08882809 16.19806995 3.15258789 20.54052734 C3.17564104 22.41218497 3.19013354 24.28396998 3.19555664 26.15576172 C2.9950465 42.28575639 2.9950465 42.28575639 10.80517578 55.90917969 C13.87932757 58.7946843 16.92477096 60.76508211 21 62 C20.01 62.495 20.01 62.495 19 63 C19 63.66 19 64.32 19 65 C19.99 65.33 20.98 65.66 22 66 C14.73718186 65.63685909 10.34063604 61.23176925 5.3125 56.4375 C2.92501248 53.4491878 1.92823953 50.1532495 0.6875 46.5625 C-1.32035176 40.93025131 -3.46894499 37.90828522 -8.328125 34.46484375 C-10.80497461 32.29470682 -10.91148951 30.01958152 -11.18945312 26.81762695 C-11.21974609 26.04894287 -11.25003906 25.28025879 -11.28125 24.48828125 C-11.31863281 23.64845703 -11.35601562 22.80863281 -11.39453125 21.94335938 C-11.46531279 20.17775312 -11.53561912 18.41212775 -11.60546875 16.64648438 C-11.64285156 15.81052734 -11.68023437 14.97457031 -11.71875 14.11328125 C-11.74904297 13.34798096 -11.77933594 12.58268066 -11.81054688 11.79418945 C-11.81212803 9.97822365 -11.81212803 9.97822365 -13 9 C-13.125 6.5 -13.125 6.5 -13 4 C-12 3 -12 3 -9.4375 2.9375 C-8.2309375 2.9684375 -8.2309375 2.9684375 -7 3 C-6.40267181 5.76264289 -6 8.16032769 -6 11 C-5.34 10.34 -4.68 9.68 -4 9 C-3.01 9 -2.02 9 -1 9 C-0.67 6.03 -0.34 3.06 0 0 Z " fill="#3B3023" transform="translate(60,104)"/>
<path d="M0 0 C1.66611905 -0.042721 3.33382885 -0.04063832 5 0 C7.09498539 2.09498539 7.04724995 6.17670575 7.5625 9.0625 C8.036875 11.681875 8.51125 14.30125 9 17 C10.32 11.72 11.64 6.44 13 1 C14.65 0.67 16.3 0.34 18 0 C19.92471317 5.33835539 21.39891424 10.34979382 22 16 C22.66 16 23.32 16 24 16 C24.12375 15.030625 24.2475 14.06125 24.375 13.0625 C24.99863809 8.65184223 25.98746506 4.33522241 27 0 C28.65 0 30.3 0 32 0 C31.34657136 5.20020293 30.30607452 10.17713083 29 15.25 C28.82210937 15.95640625 28.64421875 16.6628125 28.4609375 17.390625 C27.72336891 20.2968654 26.9485021 23.15449369 26 26 C24.02 26 22.04 26 20 26 C19.49564306 24.0636296 18.99666126 22.12585854 18.5 20.1875 C18.2215625 19.10855469 17.943125 18.02960938 17.65625 16.91796875 C17 14 17 14 17 11 C16.34 11 15.68 11 15 11 C14.86722656 11.83144531 14.73445312 12.66289062 14.59765625 13.51953125 C14.42105469 14.60621094 14.24445313 15.69289062 14.0625 16.8125 C13.88847656 17.89144531 13.71445313 18.97039062 13.53515625 20.08203125 C13 23 13 23 12 26 C10.02 26 8.04 26 6 26 C-0.47832981 7.41411205 -0.47832981 7.41411205 0 0 Z " fill="#3E2E20" transform="translate(146,200)"/>
<path d="M0 0 C1.99954746 -0.04254356 4.00041636 -0.04080783 6 0 C8.09498539 2.09498539 8.04724995 6.17670575 8.5625 9.0625 C9.036875 11.681875 9.51125 14.30125 10 17 C11.32 11.72 12.64 6.44 14 1 C15.98 1 17.96 1 20 1 C20.50636607 2.74816858 21.00484619 4.49862263 21.5 6.25 C21.7784375 7.22453125 22.056875 8.1990625 22.34375 9.203125 C23 12 23 12 23 16 C23.66 16 24.32 16 25 16 C25.12375 15.030625 25.2475 14.06125 25.375 13.0625 C25.99863809 8.65184223 26.98746506 4.33522241 28 0 C29.65 0 31.3 0 33 0 C32.75763107 9.16595227 29.89264444 17.39678442 27 26 C25.02 26 23.04 26 21 26 C19.68 21.05 18.36 16.1 17 11 C15.72500295 15.5613675 15.72500295 15.5613675 14.45727539 20.12475586 C13.11111111 24.88888889 13.11111111 24.88888889 12 26 C10.33382885 26.04063832 8.66611905 26.042721 7 26 C5.82898756 22.04293896 4.66392728 18.08415032 3.5 14.125 C3.16613281 12.99707031 2.83226562 11.86914062 2.48828125 10.70703125 C2.17246094 9.63066406 1.85664063 8.55429688 1.53125 7.4453125 C1.23798828 6.45031738 0.94472656 5.45532227 0.64257812 4.43017578 C0 2 0 2 0 0 Z " fill="#3F2E20" transform="translate(19,200)"/>
<path d="M0 0 C0.67885987 2.49723452 1.34317427 4.99696141 2 7.5 C2.19078125 8.19609375 2.3815625 8.8921875 2.578125 9.609375 C3.85677012 14.5412919 4.18357474 18.90580091 4 24 C3.32453125 24.26554687 2.6490625 24.53109375 1.953125 24.8046875 C1.06109375 25.15789062 0.1690625 25.51109375 -0.75 25.875 C-1.63171875 26.22304687 -2.5134375 26.57109375 -3.421875 26.9296875 C-5.6740248 27.8646709 -7.83649459 28.87780794 -10 30 C-11.51201537 25.70613817 -12.62960139 21.45446876 -13.5625 17 C-13.81128906 15.824375 -14.06007813 14.64875 -14.31640625 13.4375 C-14.94053831 10.29900738 -15.49428946 7.15948679 -16 4 C-14.58398286 3.51891725 -13.16715563 3.04021859 -11.75 2.5625 C-10.96109375 2.29566406 -10.1721875 2.02882812 -9.359375 1.75390625 C-6.0956101 0.71101448 -3.4442958 0 0 0 Z " fill="#389392" transform="translate(79,60)"/>
<path d="M0 0 C1.65 0 3.3 0 5 0 C5 8.58 5 17.16 5 26 C3.35 25.67 1.7 25.34 0 25 C-0.66 25.33 -1.32 25.66 -2 26 C-9.1119334 26.68825162 -9.1119334 26.68825162 -12.5 24.0625 C-14.52429717 19.92955994 -15.06657384 16.51054891 -14 12 C-12.24073807 9.25231883 -11.01612195 8.64515743 -8 7 C-4.125 7.1875 -4.125 7.1875 -1 8 C-0.67 5.36 -0.34 2.72 0 0 Z " fill="#39281A" transform="translate(105,200)"/>
<path d="M0 0 C4.34447434 4.45880261 6.95103296 9.79948288 7.9375 15.9375 C6.52785738 24.70860965 2.10069096 32.05142006 -2.625 39.4375 C-3.15738281 40.30503906 -3.68976563 41.17257813 -4.23828125 42.06640625 C-4.75777344 42.89011719 -5.27726562 43.71382812 -5.8125 44.5625 C-6.51439453 45.68011719 -6.51439453 45.68011719 -7.23046875 46.8203125 C-7.69066406 47.35398438 -8.15085937 47.88765625 -8.625 48.4375 C-9.615 48.4375 -10.605 48.4375 -11.625 48.4375 C-11.955 47.7775 -12.285 47.1175 -12.625 46.4375 C-11.96113281 45.47070312 -11.29726562 44.50390625 -10.61328125 43.5078125 C0.3386651 28.85462127 0.3386651 28.85462127 2.375 11.4375 C0.35461845 5.98144423 -2.83350319 2.91078998 -7.875 0.25 C-13.07790225 -1.28722112 -17.22139765 -0.99071767 -22.3125 0.5625 C-26.0526462 2.67956389 -28.72124922 4.57794276 -30.625 8.4375 C-31.5991917 12.41037552 -32.18438798 16.37334736 -32.625 20.4375 C-32.955 20.4375 -33.285 20.4375 -33.625 20.4375 C-33.955 17.7975 -34.285 15.1575 -34.625 12.4375 C-34.955 15.4075 -35.285 18.3775 -35.625 21.4375 C-35.955 21.4375 -36.285 21.4375 -36.625 21.4375 C-37.36422961 14.11365112 -36.85622137 9.3213951 -32.34375 3.3828125 C-23.17751433 -6.99169969 -11.48198831 -6.83451685 0 0 Z " fill="#422E20" transform="translate(127.625,32.5625)"/>
<path d="M0 0 C3.58552881 1.63687185 4.79315055 2.68972583 7 6 C7.55248619 13.59668508 7.55248619 13.59668508 5 17 C2.13639535 19.29088372 0.20759371 19.96980455 -3.4375 20.5 C-7.00099838 19.99985988 -9.2360563 19.25539058 -11.890625 16.7578125 C-14.20589077 13.08925758 -13.88330421 9.11309593 -13 5 C-9.61897761 -0.28284749 -5.87611281 -1.10623176 0 0 Z " fill="#3D2919" transform="translate(116,40)"/>
<path d="M0 0 C0.33 0 0.66 0 1 0 C1.020625 1.216875 1.04125 2.43375 1.0625 3.6875 C2.22319108 13.97251261 9.55285577 23.11877151 15.30078125 31.44140625 C16.72503159 33.5859671 17.91958075 35.66914629 19 38 C20.98 37.01 22.96 36.02 25 35 C25 36.32 25 37.64 25 39 C30.28 39 35.56 39 41 39 C41 39.66 41 40.32 41 41 C40.04859131 41.02505615 39.09718262 41.0501123 38.11694336 41.07592773 C34.51041265 41.17171395 30.90400024 41.27148089 27.29760742 41.37231445 C25.75108653 41.41502895 24.20453731 41.45673271 22.65795898 41.49731445 C12.41586748 41.76693077 2.21786676 42.23297767 -8 43 C-8.33 41.68 -8.66 40.36 -9 39 C-4.94952424 37.64984141 -2.2079832 38.37915002 2 39 C1.67 38.175 1.34 37.35 1 36.5 C-0.16782809 32.4126017 -0.1458885 29.23076656 0 25 C0.66 25 1.32 25 2 25 C2.50512244 26.60256108 3.00391627 28.20711792 3.5 29.8125 C3.7784375 30.70582031 4.056875 31.59914063 4.34375 32.51953125 C5 35 5 35 5 38 C9.455 37.505 9.455 37.505 14 37 C13.33613281 36.03320312 12.67226562 35.06640625 11.98828125 34.0703125 C-2.49990187 12.8063704 -2.49990187 12.8063704 -1 1 C-0.67 0.67 -0.34 0.34 0 0 Z " fill="#372618" transform="translate(93,44)"/>
<path d="M0 0 C1.26567307 0.01685097 1.26567307 0.01685097 2.55691528 0.03404236 C3.42865387 0.03258713 4.30039246 0.0311319 5.19854736 0.02963257 C7.04280945 0.03129251 8.88708524 0.04286443 10.73123169 0.06358337 C13.54742691 0.09245872 16.36173046 0.08421059 19.17800903 0.07115173 C20.9709869 0.07739175 22.76395883 0.08578474 24.55691528 0.09654236 C25.39664886 0.09360672 26.23638245 0.09067108 27.1015625 0.08764648 C31.80438408 0.16308113 34.81270199 0.57011376 38.68972778 3.53013611 C31.02483725 7.61372247 22.91099253 7.88784436 14.37722778 7.84263611 C13.36845581 7.84134705 12.35968384 7.84005798 11.32034302 7.83872986 C4.05479459 7.74503374 -2.43203941 7.01517506 -9.31027222 4.53013611 C-7.19294227 0.12222026 -4.63416315 0.0554172 0 0 Z " fill="#1A5A5B" transform="translate(103.31027221679688,172.46986389160156)"/>
<path d="M0 0 C2.8125 1.5625 2.8125 1.5625 5 4 C5.8125 7.75 5.8125 7.75 6 11 C1.71 11 -2.58 11 -7 11 C-6.67 12.32 -6.34 13.64 -6 15 C-0.555 14.505 -0.555 14.505 5 14 C3 18 3 18 2 19 C-2.78153135 19.60966702 -6.69955733 19.99081346 -10.625 17 C-12.38029534 13.17026472 -12.85349032 10.14193833 -12 6 C-8.65421837 0.75827545 -6.19002146 -0.60686485 0 0 Z " fill="#3D2C1E" transform="translate(217,207)"/>
<path d="M0 0 C2.875 1.625 2.875 1.625 5 5 C5.42010403 9.69559311 5.28626286 14.29892774 5 19 C2.70890403 19.08075665 0.41700733 19.13907731 -1.875 19.1875 C-3.78925781 19.23970703 -3.78925781 19.23970703 -5.7421875 19.29296875 C-6.81726562 19.19628906 -7.89234375 19.09960938 -9 19 C-11.14762184 15.77856724 -11.561068 14.7404533 -11 11 C-9.4375 9.1875 -9.4375 9.1875 -7 8 C-3.25 7.8125 -3.25 7.8125 0 8 C-0.33 7.01 -0.66 6.02 -1 5 C-2.32 5 -3.64 5 -5 5 C-5.33 5.66 -5.66 6.32 -6 7 C-7.32 7 -8.64 7 -10 7 C-9.6875 4.625 -9.6875 4.625 -9 2 C-5.48175489 -0.34549674 -4.14224306 -0.57991403 0 0 Z " fill="#3B2B1C" transform="translate(63,207)"/>
<path d="M0 0 C4.71568193 3.56295968 4.98058954 4.88353726 6 11 C1.71 11 -2.58 11 -7 11 C-6.67 11.99 -6.34 12.98 -6 14 C-2.37 14 1.26 14 5 14 C3 18 3 18 1 19 C-2.05905981 19.41338646 -4.94532102 19.46661171 -8 19 C-10.70879965 16.8858149 -11.7230135 15.44616111 -12.37109375 12.0625 C-12.61174259 8.21211862 -12.24270904 6.38024417 -10.125 3.0625 C-6.79336654 -0.17114424 -4.60938161 -0.54228019 0 0 Z " fill="#362517" transform="translate(125,207)"/>
<path d="M0 0 C2.375 1.375 2.375 1.375 4 4 C4.69561439 8.63482399 4.44564205 12.68928808 2.9375 17.125 C1 19 1 19 -2.4375 19.5625 C-6 19 -6 19 -8.4375 17.6875 C-10.97175584 13.32857995 -10.72979436 8.90749475 -10 4 C-7.43535847 -0.24152253 -4.79876705 -0.79979451 0 0 Z " fill="#473627" transform="translate(141,114)"/>
<path d="M0 0 C1.07031153 1.60546729 2.12675472 3.22365779 3.078125 4.90234375 C6.33285722 10.5547287 9.64536356 13.88178785 16 16 C17.39579273 16.11294746 18.79599909 16.17589187 20.19604492 16.20532227 C21.03668991 16.22526749 21.8773349 16.24521271 22.74345398 16.26576233 C23.64666885 16.28247482 24.54988373 16.29918732 25.48046875 16.31640625 C26.40845779 16.33718735 27.33644684 16.35796844 28.29255676 16.37937927 C31.2574624 16.44477323 34.22245672 16.50371262 37.1875 16.5625 C39.1972748 16.60569487 41.20704063 16.64930947 43.21679688 16.69335938 C48.14444032 16.80044427 53.07217299 16.90174045 58 17 C58 17.33 58 17.66 58 18 C47.605 18.495 47.605 18.495 37 19 C48.22 19.33 59.44 19.66 71 20 C71 20.33 71 20.66 71 21 C63.63515926 21.07644863 56.27042195 21.12876661 48.90527344 21.16479492 C46.40295589 21.17982434 43.90066443 21.2002535 41.3984375 21.22631836 C37.78899675 21.26295878 34.17990617 21.27978546 30.5703125 21.29296875 C29.46261505 21.30845261 28.3549176 21.32393646 27.21365356 21.33988953 C19.41171838 21.34155678 11.5613803 20.89975958 5.30859375 15.80859375 C4.38240234 14.63490234 4.38240234 14.63490234 3.4375 13.4375 C2.79683594 12.65246094 2.15617187 11.86742187 1.49609375 11.05859375 C-1.05907785 7.542731 -1.18436111 5.33248613 -1 1 C-0.67 0.67 -0.34 0.34 0 0 Z " fill="#34392E" transform="translate(72,136)"/>
<path d="M0 0 C2.03667114 1.55059211 2.87628193 2.58891148 3.6171875 5.05078125 C4.21336674 10.28089915 3.97740607 13.41937528 1 18 C0 19 0 19 -3.375 19.25 C-7 19 -7 19 -8.70703125 17.82421875 C-10.47776371 15.32593458 -10.3660728 13.59966541 -10.3125 10.5625 C-10.30863281 9.61503906 -10.30476563 8.66757813 -10.30078125 7.69140625 C-9.99560431 4.96066716 -9.4811286 3.29758111 -8 1 C-5.20129973 -0.39935013 -3.09501208 -0.25265405 0 0 Z " fill="#453426" transform="translate(101,114)"/>
<path d="M0 0 C2.1484375 1.53515625 2.1484375 1.53515625 4 4 C4.2911521 6.73682971 4.38322418 9.03940039 4.25 11.75 C4.23195313 12.44738281 4.21390625 13.14476562 4.1953125 13.86328125 C4.14838554 15.57611539 4.07664605 17.28823824 4 19 C2.35 19 0.7 19 -1 19 C-1 14.38 -1 9.76 -1 5 C-2.98 5.66 -4.96 6.32 -7 7 C-7.33 10.96 -7.66 14.92 -8 19 C-9.65 19 -11.3 19 -13 19 C-13 13.06 -13 7.12 -13 1 C-11.02 1 -9.04 1 -7 1 C-4.4086487 -0.29567565 -2.87704151 -0.34250494 0 0 Z " fill="#453426" transform="translate(84,207)"/>
<path d="M0 0 C0.78375 0.04125 1.5675 0.0825 2.375 0.125 C4.63200986 7.06154364 6.19120241 13.93202038 7.375 21.125 C7.601875 22.32125 7.82875 23.5175 8.0625 24.75 C8.2171875 25.925625 8.2171875 25.925625 8.375 27.125 C7.375 28.125 7.375 28.125 4.3125 28.1875 C3.343125 28.166875 2.37375 28.14625 1.375 28.125 C-4.30370722 9.49001901 -4.30370722 9.49001901 -4.625 2.125 C-2.625 0.125 -2.625 0.125 0 0 Z " fill="#39918F" transform="translate(57.625,64.875)"/>
<path d="M0 0 C0.66 0 1.32 0 2 0 C3.35439668 2.70879335 3.06501451 5.00933268 3 8 C3.78375 8.12375 4.5675 8.2475 5.375 8.375 C8 9 8 9 10 11 C9.814375 9.700625 9.62875 8.40125 9.4375 7.0625 C9.12109375 4.84765625 9.12109375 4.84765625 9 3 C10 2 10 2 12.5625 1.9375 C13.7690625 1.9684375 13.7690625 1.9684375 15 2 C15.38218767 3.65614657 15.71395102 5.32457024 16 7 C15.67 7.33 15.34 7.66 15 8 C14.76298761 10.85877909 14.57780818 13.69883297 14.4375 16.5625 C14.39431641 17.36880859 14.35113281 18.17511719 14.30664062 19.00585938 C14.20024738 21.00368805 14.09959112 23.0018207 14 25 C13.01 25 12.02 25 11 25 C10.7525 23.783125 10.505 22.56625 10.25 21.3125 C9.28115233 17.40942794 7.8359991 14.92462408 5 12 C4.34 11.67 3.68 11.34 3 11 C3 16.94 3 22.88 3 29 C2.34 29.33 1.68 29.66 1 30 C0.67 20.1 0.34 10.2 0 0 Z " fill="#372719" transform="translate(173,105)"/>
<path d="M0 0 C1.71082495 3.9178632 2.69519707 7.75537435 3.5625 11.9375 C3.81128906 13.12214844 4.06007813 14.30679688 4.31640625 15.52734375 C4.93659558 18.67790553 5.49177993 21.82967479 6 25 C3.36 25 0.72 25 -2 25 C-2.65192688 22.50145233 -3.29663064 20.0013863 -3.9375 17.5 C-4.11990234 16.80390625 -4.30230469 16.1078125 -4.49023438 15.390625 C-5.70965566 10.60162506 -6.47422365 5.91462529 -7 1 C-4.53721199 -0.231394 -2.7204945 -0.07159196 0 0 Z " fill="#39908F" transform="translate(89,58)"/>
<path d="M0 0 C2.375 1.3125 2.375 1.3125 4 3 C4 3.99 4 4.98 4 6 C1.03 5.67 -1.94 5.34 -5 5 C-5.33 5.66 -5.66 6.32 -6 7 C-4.906875 7.103125 -3.81375 7.20625 -2.6875 7.3125 C1 8 1 8 2.9375 9.1875 C4.52736542 11.89962336 4.39222062 13.92760514 4 17 C0.86588698 19.08940868 0.02549528 19.27364412 -3.5625 19.25 C-4.74005859 19.25773437 -4.74005859 19.25773437 -5.94140625 19.265625 C-8 19 -8 19 -10 17 C-10 16.01 -10 15.02 -10 14 C-7.03 14.33 -4.06 14.66 -1 15 C-1 14.34 -1 13.68 -1 13 C-1.56589844 12.79503906 -2.13179687 12.59007812 -2.71484375 12.37890625 C-3.44832031 12.10949219 -4.18179688 11.84007812 -4.9375 11.5625 C-5.66839844 11.29566406 -6.39929688 11.02882812 -7.15234375 10.75390625 C-9 10 -9 10 -10 9 C-10.3125 6.125 -10.3125 6.125 -10 3 C-7.08783566 -0.36018962 -4.28391942 -0.53548993 0 0 Z " fill="#3E2E20" transform="translate(199,207)"/>
<path d="M0 0 C1.85416544 0.00503144 3.70833222 0.0095914 5.5625 0.01367188 C10.04170068 0.02453256 14.52083488 0.04170388 19 0.0625 C19 1.0525 19 2.0425 19 3.0625 C0.52 3.0625 -17.96 3.0625 -37 3.0625 C-37 2.4025 -37 1.7425 -37 1.0625 C-24.64946173 0.09406582 -12.38275733 -0.0592744 0 0 Z " fill="#312113" transform="translate(122,96.9375)"/>
<path d="M0 0 C2 2 2 2 2.375 5.375 C2 9 2 9 0.375 11.5 C-2 13 -2 13 -5.0625 13 C-8 12 -8 12 -9.9375 10.3125 C-11.40109489 7.12702876 -10.98928968 5.32118677 -10 2 C-7.54318383 -2.23118341 -4.28165368 -1.01202723 0 0 Z " fill="#E8D9BC" transform="translate(117,44)"/>
<path d="M0 0 C0.66 0 1.32 0 2 0 C2.75236491 11.84974731 -2.63119235 19.35750617 -9 29 C-9.40734375 29.6703125 -9.8146875 30.340625 -10.234375 31.03125 C-11.25 32.6875 -11.25 32.6875 -13 35 C-13.99 35 -14.98 35 -16 35 C-16.33 34.34 -16.66 33.68 -17 33 C-16.34773438 32.06800781 -15.69546875 31.13601562 -15.0234375 30.17578125 C-5.24986106 16.11957798 -5.24986106 16.11957798 0 0 Z " fill="#432D1D" transform="translate(132,46)"/>
<path d="M0 0 C1.2065625 0.0309375 1.2065625 0.0309375 2.4375 0.0625 C3.03482819 2.82514289 3.4375 5.22282769 3.4375 8.0625 C4.7575 7.4025 6.0775 6.7425 7.4375 6.0625 C7.06095086 8.77365381 6.77431591 10.63382521 5.0625 12.8125 C2.60597047 16.21384858 1.63913997 20.07407796 0.4375 24.0625 C-0.2225 24.0625 -0.8825 24.0625 -1.5625 24.0625 C-1.62308594 22.84691406 -1.68367188 21.63132813 -1.74609375 20.37890625 C-1.83048332 18.79425772 -1.9151321 17.20962298 -2 15.625 C-2.03931641 14.82255859 -2.07863281 14.02011719 -2.11914062 13.19335938 C-1.9679296 9.31010439 -1.9679296 9.31010439 -3.5625 6.0625 C-3.6875 3.5625 -3.6875 3.5625 -3.5625 1.0625 C-2.5625 0.0625 -2.5625 0.0625 0 0 Z " fill="#37281A" transform="translate(50.5625,106.9375)"/>
<path d="M0 0 C0.66 0 1.32 0 2 0 C2.268125 0.58265625 2.53625 1.1653125 2.8125 1.765625 C5.79354105 8.00227666 9.30623222 13.64842069 13.23046875 19.3359375 C15 22 15 22 17 26 C13.7 26 10.4 26 7 26 C5.14873534 20.10961244 3.6111118 14.33882254 2.47265625 8.2734375 C1.88082009 5.42675449 1.00436584 2.72613586 0 0 Z " fill="#E1D3B8" transform="translate(91,56)"/>
<path d="M0 0 C1.9375 0.75 1.9375 0.75 3.9375 1.75 C4.2675 1.09 4.5975 0.43 4.9375 -0.25 C5.5975 -0.25 6.2575 -0.25 6.9375 -0.25 C6.9375 0.74 6.9375 1.73 6.9375 2.75 C8.2575 3.08 9.5775 3.41 10.9375 3.75 C10.9375 6.06 10.9375 8.37 10.9375 10.75 C10.6075 10.75 10.2775 10.75 9.9375 10.75 C9.9375 8.77 9.9375 6.79 9.9375 4.75 C8.9475 4.75 7.9575 4.75 6.9375 4.75 C6.9375 6.73 6.9375 8.71 6.9375 10.75 C6.2775 10.75 5.6175 10.75 4.9375 10.75 C4.6075 10.09 4.2775 9.43 3.9375 8.75 C3.2775 9.41 2.6175 10.07 1.9375 10.75 C-0.5625 11.0625 -0.5625 11.0625 -3.0625 10.75 C-5.21752531 7.51746204 -5.53106135 6.49849077 -5.0625 2.75 C-3.47961664 0.37567497 -2.89043192 -0.35035538 0 0 Z " fill="#E3D5B9" transform="translate(52.0625,235.25)"/>
<path d="M0 0 C3.63 0 7.26 0 11 0 C11 1.32 11 2.64 11 4 C9.35 4.33 7.7 4.66 6 5 C5.67 9.29 5.34 13.58 5 18 C3.35 18 1.7 18 0 18 C0 12.06 0 6.12 0 0 Z " fill="#39281B" transform="translate(133,208)"/>
<path d="M0 0 C4.24180013 2.12090006 5.14065292 2.81646907 7 7 C7.56746391 12.20175248 6.86149973 15.60555398 4 20 C2.02 20.99 2.02 20.99 0 22 C0 14.74 0 7.48 0 0 Z " fill="#1C5857" transform="translate(177,117)"/>
<path d="M0 0 C0 7.26 0 14.52 0 22 C-4.62721796 19.68639102 -5.34634843 18.78688613 -7 14 C-7.2153361 9.2957345 -6.59169394 5.93525817 -4.0625 1.9375 C-2 0 -2 0 0 0 Z " fill="#1D5958" transform="translate(59,117)"/>
<path d="M0 0 C0.66 0 1.32 0 2 0 C2.33 0.66 2.66 1.32 3 2 C5.31 2 7.62 2 10 2 C10 4.64 10 7.28 10 10 C6.7 10 3.4 10 0 10 C0 8.02 0 6.04 0 4 C-1.32 4.33 -2.64 4.66 -4 5 C-3.34 5.33 -2.68 5.66 -2 6 C-2.33 7.32 -2.66 8.64 -3 10 C-4.65 9.67 -6.3 9.34 -8 9 C-7.34 8.67 -6.68 8.34 -6 8 C-5.34 8.33 -4.68 8.66 -4 9 C-4 8.34 -4 7.68 -4 7 C-5.32 6.67 -6.64 6.34 -8 6 C-7.67 4.68 -7.34 3.36 -7 2 C-4.69 2 -2.38 2 0 2 C0 1.34 0 0.68 0 0 Z " fill="#6C5E4F" transform="translate(179,236)"/>
<path d="M0 0 C0.86625 0.3403125 0.86625 0.3403125 1.75 0.6875 C1.42 1.3475 1.09 2.0075 0.75 2.6875 C2.4 2.6875 4.05 2.6875 5.75 2.6875 C5.24396008 4.85624252 4.75016187 6.68717627 3.75 8.6875 C6.72 9.1825 6.72 9.1825 9.75 9.6875 C6.66844479 10.57613453 3.82956404 10.88010482 0.625 10.9375 C-0.67824219 10.97617188 -0.67824219 10.97617188 -2.0078125 11.015625 C-2.74773438 10.90734375 -3.48765625 10.7990625 -4.25 10.6875 C-6.39762184 7.46606724 -6.811068 6.4279533 -6.25 2.6875 C-4.11319077 0.39806154 -3.15626895 -0.43837069 0 0 Z " fill="#453426" transform="translate(58.25,215.3125)"/>
<path d="M0 0 C-1.56149465 1.84835389 -2.46100677 2.8965321 -4.87931824 3.36076355 C-5.58325211 3.35410172 -6.28718597 3.34743988 -7.01245117 3.34057617 C-7.81305466 3.34034958 -8.61365814 3.34012299 -9.43852234 3.33988953 C-10.29798965 3.32440567 -11.15745697 3.30892181 -12.04296875 3.29296875 C-12.9265657 3.28872391 -13.81016266 3.28447906 -14.72053528 3.28010559 C-17.54316661 3.26331043 -20.36508441 3.22565697 -23.1875 3.1875 C-25.10090115 3.17245423 -27.01431349 3.15876564 -28.92773438 3.14648438 C-33.61876459 3.11340419 -38.30926131 3.0616163 -43 3 C-42.67 2.34 -42.34 1.68 -42 1 C-36.6618715 0.68910386 -31.32337281 0.38616917 -25.984375 0.09057617 C-24.16849619 -0.01108062 -22.35273736 -0.11490492 -20.53710938 -0.22094727 C-17.92606733 -0.3730676 -15.31469185 -0.51736611 -12.703125 -0.66015625 C-11.89256653 -0.70906509 -11.08200806 -0.75797394 -10.24688721 -0.80836487 C-6.60686726 -1.0003825 -3.50036642 -1.00679242 0 0 Z " fill="#352518" transform="translate(151,153)"/>
<path d="M0 0 C3.99774632 -0.46485422 5.54353115 -0.34488758 8.8125 2.125 C11 5 11 5 12 11 C7.71 11 3.42 11 -1 11 C-0.01 10.34 0.98 9.68 2 9 C1.01 8.67 0.02 8.34 -1 8 C-0.649375 7.05125 -0.29875 6.1025 0.0625 5.125 C1.35026777 2.12939828 1.35026777 2.12939828 0 0 Z " fill="#3C2B1D" transform="translate(119,207)"/>
<path d="M0 0 C-0.33 0.99 -0.66 1.98 -1 3 C-2.0725 3.433125 -3.145 3.86625 -4.25 4.3125 C-8.2726229 5.94798118 -11.05638114 8.05961645 -13 12 C-13.9741917 15.97287552 -14.55938798 19.93584736 -15 24 C-15.33 24 -15.66 24 -16 24 C-16.33 21.36 -16.66 18.72 -17 16 C-17.33 18.97 -17.66 21.94 -18 25 C-18.33 25 -18.66 25 -19 25 C-19.73922961 17.67615112 -19.23122137 12.8838951 -14.71875 6.9453125 C-10.54815873 2.22496147 -6.60017933 -2.20005978 0 0 Z " fill="#443428" transform="translate(110,29)"/>
<path d="M0 0 C4.875 0.875 4.875 0.875 6 2 C7.64230364 2.1245486 9.29052276 2.17568524 10.9375 2.1875 C11.83339844 2.20167969 12.72929688 2.21585938 13.65234375 2.23046875 C16.19114534 2.23194769 16.19114534 2.23194769 18 0 C19.32 0 20.64 0 22 0 C21.70926678 2.81042113 21.18436938 3.83347282 19.0625 5.75 C14.22680177 7.72375438 8.95575801 8.18929908 4.01953125 6.203125 C2.375 5.1875 2.375 5.1875 0 3 C0 2.01 0 1.02 0 0 Z " fill="#39291B" transform="translate(107,138)"/>
<path d="M0 0 C1.65 0 3.3 0 5 0 C5 5.94 5 11.88 5 18 C3.35 18 1.7 18 0 18 C0 12.06 0 6.12 0 0 Z " fill="#423224" transform="translate(181,208)"/>
<path d="M0 0 C2.40201037 3.60301555 3.17207679 7.15846069 4.125 11.3125 C4.30675781 12.05951172 4.48851562 12.80652344 4.67578125 13.57617188 C5.66292457 17.80307504 6.20855091 21.62738257 6 26 C2.67885633 23.81675638 1.18505409 22.51410722 -0.1796875 18.72265625 C-0.40914062 17.51480469 -0.63859375 16.30695313 -0.875 15.0625 C-1.11992188 13.85722656 -1.36484375 12.65195313 -1.6171875 11.41015625 C-2.10563057 7.05902564 -1.3670778 4.10123339 0 0 Z " fill="#362C1F" transform="translate(53,70)"/>
<path d="M0 0 C0.33 1.98 0.66 3.96 1 6 C-3.29 6.99 -7.58 7.98 -12 9 C-12.33 6.69 -12.66 4.38 -13 2 C-8.46298506 0.54815522 -4.81938524 -0.23509196 0 0 Z " fill="#EADBBF" transform="translate(75,51)"/>
<path d="M0 0 C3.58552881 1.63687185 4.79315055 2.68972583 7 6 C7.07905064 8.33199388 7.08798769 10.66832622 7 13 C6.67 13 6.34 13 6 13 C6 11.02 6 9.04 6 7 C5.34 7 4.68 7 4 7 C4 8.65 4 10.3 4 12 C3.67 12 3.34 12 3 12 C2.34 9.69 1.68 7.38 1 5 C-2.30567489 4.14612895 -2.30567489 4.14612895 -6 4 C-8.46172153 5.792191 -8.46172153 5.792191 -10 8 C-10.99 7.67 -11.98 7.34 -13 7 C-10.66812626 0.18375367 -6.90485515 -0.89007898 0 0 Z " fill="#412C1B" transform="translate(116,40)"/>
<path d="M0 0 C1.9375 0.8125 1.9375 0.8125 3.9375 2.8125 C4.1875 5.8125 4.1875 5.8125 3.9375 8.8125 C3.2775 9.4725 2.6175 10.1325 1.9375 10.8125 C-3.63068182 10.24431818 -3.63068182 10.24431818 -5.0625 8.8125 C-5.52227011 3.52514368 -5.52227011 3.52514368 -3.8125 0.875 C-2.0625 -0.1875 -2.0625 -0.1875 0 0 Z " fill="#E8D9BD" transform="translate(101.0625,211.1875)"/>
<path d="M0 0 C0.66 0 1.32 0 2 0 C3.04005702 3.38018531 3.08004482 6.4780279 3 10 C2.01 10 1.02 10 0 10 C0 8.02 0 6.04 0 4 C-0.66 4 -1.32 4 -2 4 C-2 5.98 -2 7.96 -2 10 C-3.98 10 -5.96 10 -8 10 C-8 7.69 -8 5.38 -8 3 C-5.23735711 2.40267181 -2.83967231 2 0 2 C0 1.34 0 0.68 0 0 Z " fill="#7A6C5C" transform="translate(73,236)"/>
<path d="M0 0 C0.33 0 0.66 0 1 0 C1.165 0.928125 1.33 1.85625 1.5 2.8125 C3.1842647 6.39156248 3.6106519 6.58971722 7.125 7.875 C8.40982976 8.27279427 9.69991255 8.65532565 11 9 C10.67 9.99 10.34 10.98 10 12 C6.97580475 11.41196203 3.98241547 10.77321882 1 10 C1 10.99 1 11.98 1 13 C0.01 13.33 -0.98 13.66 -2 14 C-2.05410687 12.22950311 -2.09284119 10.45853151 -2.125 8.6875 C-2.14820313 7.70136719 -2.17140625 6.71523437 -2.1953125 5.69921875 C-2 3 -2 3 0 0 Z " fill="#E5D6BA" transform="translate(188,211)"/>
<path d="M0 0 C0.33 0.66 0.66 1.32 1 2 C1.66 2 2.32 2 3 2 C3 2.66 3 3.32 3 4 C2.34 4 1.68 4 1 4 C1 5.32 1 6.64 1 8 C1.66 8 2.32 8 3 8 C3 8.66 3 9.32 3 10 C0.69 10 -1.62 10 -4 10 C-4 8.02 -4 6.04 -4 4 C-4.99 4 -5.98 4 -7 4 C-7 5.98 -7 7.96 -7 10 C-7.66 10 -8.32 10 -9 10 C-9 7.36 -9 4.72 -9 2 C-6.03 2 -3.06 2 0 2 C0 1.34 0 0.68 0 0 Z " fill="#CDC0A8" transform="translate(200,236)"/>
<path d="M0 0 C0.33 0 0.66 0 1 0 C2.15685246 2.94471536 2.90513801 4.89590488 3 8 C0.94975191 12.56059122 -2.03505553 15.40618802 -6.25 18 C-9 19 -9 19 -11 19 C-11 17.68 -11 16.36 -11 15 C-9.35546875 13.8671875 -9.35546875 13.8671875 -7.1875 12.875 C-3.32859036 10.70991264 -2.22576593 8.9268563 -1 4.6875 C-0.63660536 3.13171669 -0.29277304 1.57060539 0 0 Z " fill="#3A2F22" transform="translate(161,136)"/>
<path d="M0 0 C0.66 0 1.32 0 2 0 C3.35439668 2.70879335 3.06501451 5.00933268 3 8 C3.66 8 4.32 8 5 8 C4.67 8.99 4.34 9.98 4 11 C3.85507877 12.40664926 3.75371069 13.8181133 3.68359375 15.23046875 C3.64169922 16.03291016 3.59980469 16.83535156 3.55664062 17.66210938 C3.51732422 18.49548828 3.47800781 19.32886719 3.4375 20.1875 C3.39431641 21.03248047 3.35113281 21.87746094 3.30664062 22.74804688 C3.20068482 24.83184433 3.0998498 26.91590103 3 29 C2.34 29.33 1.68 29.66 1 30 C0.67 20.1 0.34 10.2 0 0 Z " fill="#332214" transform="translate(173,105)"/>
<path d="M0 0 C1.32 0 2.64 0 4 0 C4 1.32 4 2.64 4 4 C4.66 4 5.32 4 6 4 C6.33 2.68 6.66 1.36 7 0 C8.32 0.33 9.64 0.66 11 1 C11 3.33333333 11 5.66666667 11 8 C7.37 8 3.74 8 0 8 C-0.92538169 4.29847322 -1.08174162 3.36541838 0 0 Z " fill="#635547" transform="translate(155,238)"/>
<path d="M0 0 C0 2.64 0 5.28 0 8 C-2.31 8 -4.62 8 -7 8 C-7.33 6.02 -7.66 4.04 -8 2 C-4.91190305 0.23537317 -3.76687864 0 0 0 Z " fill="#9A8C79" transform="translate(189,238)"/>
<path d="M0 0 C1.06432275 3.19296825 1.03788336 5.20444941 0.87890625 8.54296875 C0.83056641 9.61611328 0.78222656 10.68925781 0.73242188 11.79492188 C0.67634766 12.91447266 0.62027344 14.03402344 0.5625 15.1875 C0.51029297 16.31865234 0.45808594 17.44980469 0.40429688 18.61523438 C0.27456193 21.4104328 0.13959359 24.2052794 0 27 C-0.66 27.33 -1.32 27.66 -2 28 C-2.05783842 23.70838953 -2.0935412 19.41687855 -2.125 15.125 C-2.14175781 13.90167969 -2.15851563 12.67835937 -2.17578125 11.41796875 C-2.18222656 10.25136719 -2.18867187 9.08476563 -2.1953125 7.8828125 C-2.20578613 6.80402832 -2.21625977 5.72524414 -2.22705078 4.61376953 C-2 2 -2 2 0 0 Z " fill="#312113" transform="translate(73,109)"/>
<path d="M0 0 C0.33 1.32 0.66 2.64 1 4 C6.28 4 11.56 4 17 4 C17 4.66 17 5.32 17 6 C9.74 6 2.48 6 -5 6 C-5 5.34 -5 4.68 -5 4 C-3.37373596 2.61767557 -1.7074998 1.28062485 0 0 Z " fill="#332213" transform="translate(117,79)"/>
<path d="M0 0 C5.98993047 -0.3152595 9.63560356 0.31780178 15 3 C14.67 4.32 14.34 5.64 14 7 C13.01 6.525625 12.02 6.05125 11 5.5625 C7.00810505 3.83186252 3.31885418 3.37884686 -1 3 C-0.67 2.01 -0.34 1.02 0 0 Z " fill="#422D1C" transform="translate(110,28)"/>
<path d="M0 0 C3.02419525 0.58803797 6.01758453 1.22678118 9 2 C9.33 1.34 9.66 0.68 10 0 C10.66 0.66 11.32 1.32 12 2 C11.7578125 4.1640625 11.7578125 4.1640625 11.125 6.625 C10.92132813 7.44226563 10.71765625 8.25953125 10.5078125 9.1015625 C10.25644531 10.04128906 10.25644531 10.04128906 10 11 C9.71125 10.38125 9.4225 9.7625 9.125 9.125 C7.29370009 5.66587795 6.18938523 5.05877473 2.375 3.875 C1.26125 3.58625 0.1475 3.2975 -1 3 C-0.67 2.01 -0.34 1.02 0 0 Z " fill="#DFD2B7" transform="translate(194,211)"/>
<path d="M0 0 C0.33 0.99 0.66 1.98 1 3 C2.65 3.33 4.3 3.66 6 4 C6.04254356 5.99954746 6.04080783 8.00041636 6 10 C5.67 10.33 5.34 10.66 5 11 C3.35 11 1.7 11 0 11 C0 7.37 0 3.74 0 0 Z " fill="#7D6F5D" transform="translate(78,235)"/>
<path d="M0 0 C0.33 1.32 0.66 2.64 1 4 C1.66 4 2.32 4 3 4 C3 15.88 3 27.76 3 40 C2.67 40 2.34 40 2 40 C1.67 28.78 1.34 17.56 1 6 C0.34 6.99 -0.32 7.98 -1 9 C-0.67 6.03 -0.34 3.06 0 0 Z " fill="#3E5148" transform="translate(60,104)"/>
<path d="M0 0 C0.33 0 0.66 0 1 0 C1 6.93 1 13.86 1 21 C0.34 21.33 -0.32 21.66 -1 22 C-1 17.05 -1 12.1 -1 7 C-1.99 6.67 -2.98 6.34 -4 6 C-3.67 5.34 -3.34 4.68 -3 4 C-2.34 4 -1.68 4 -1 4 C-0.67 2.68 -0.34 1.36 0 0 Z " fill="#342215" transform="translate(61,109)"/>
<path d="M0 0 C1.2065625 0.0309375 1.2065625 0.0309375 2.4375 0.0625 C3.38046589 3.72958957 3.55171833 6.41596727 2.4375 10.0625 C1.4475 10.5575 1.4475 10.5575 0.4375 11.0625 C-0.2225 10.0725 -0.8825 9.0825 -1.5625 8.0625 C-2.2225 7.4025 -2.8825 6.7425 -3.5625 6.0625 C-3.75 3.5 -3.75 3.5 -3.5625 1.0625 C-2.5625 0.0625 -2.5625 0.0625 0 0 Z " fill="#423224" transform="translate(50.5625,106.9375)"/>
<path d="M0 0 C0.33 0 0.66 0 1 0 C1.0825 1.299375 1.165 2.59875 1.25 3.9375 C1.80338263 9.14094865 3.64679993 13.37021568 6 18 C4.68 18.33 3.36 18.66 2 19 C-1.18947978 13.01972541 -1.60621905 7.7383579 -1 1 C-0.67 0.67 -0.34 0.34 0 0 Z " fill="#3E2A1B" transform="translate(93,44)"/>
<path d="M0 0 C3.28220895 1.64110448 3.74570789 4.69322988 5 8 C5 8.99 5 9.98 5 11 C4.34 11 3.68 11 3 11 C3 10.01 3 9.02 3 8 C1.02463255 8.34786708 1.02463255 8.34786708 -1 9 C-1.33 9.66 -1.66 10.32 -2 11 C-2.66 11 -3.32 11 -4 11 C-3.39301257 6.87248551 -1.96189209 3.6678852 0 0 Z " fill="#645546" transform="translate(34,235)"/>
<path d="M0 0 C1.32 0 2.64 0 4 0 C4.33 2.31 4.66 4.62 5 7 C3.35 7.33 1.7 7.66 0 8 C-1.125 5.6875 -1.125 5.6875 -2 3 C-1.34 2.01 -0.68 1.02 0 0 Z " fill="#847665" transform="translate(87,238)"/>
<path d="M0 0 C1.2065625 0.0309375 1.2065625 0.0309375 2.4375 0.0625 C2.7675 1.7125 3.0975 3.3625 3.4375 5.0625 C2.4475 5.7225 1.4575 6.3825 0.4375 7.0625 C-0.28632467 9.12175139 -0.28632467 9.12175139 -0.5625 11.0625 C-1.2225 10.7325 -1.8825 10.4025 -2.5625 10.0625 C-3.01171875 8.03125 -3.01171875 8.03125 -3.25 5.5625 C-3.33636719 4.7478125 -3.42273438 3.933125 -3.51171875 3.09375 C-3.52847656 2.4234375 -3.54523438 1.753125 -3.5625 1.0625 C-2.5625 0.0625 -2.5625 0.0625 0 0 Z " fill="#3F2F21" transform="translate(185.5625,106.9375)"/>
<path d="M0 0 C1.65 0.33 3.3 0.66 5 1 C5 3.31 5 5.62 5 8 C3.35 8 1.7 8 0 8 C-0.79953138 4.71303767 -1.09658936 3.28976808 0 0 Z " fill="#796C5C" transform="translate(116,238)"/>
<path d="M0 0 C0.66 1.32 1.32 2.64 2 4 C2.99 3.67 3.98 3.34 5 3 C5.33 6.63 5.66 10.26 6 14 C2 12 2 12 0 9 C-0.1953125 6.73828125 -0.1953125 6.73828125 -0.125 4.3125 C-0.10695313 3.50425781 -0.08890625 2.69601563 -0.0703125 1.86328125 C-0.04710938 1.24839844 -0.02390625 0.63351563 0 0 Z " fill="#4E3F30" transform="translate(91,212)"/>
<path d="M0 0 C1.13598633 0.00483398 1.13598633 0.00483398 2.29492188 0.00976562 C3.47344727 0.02233398 3.47344727 0.02233398 4.67578125 0.03515625 C5.47306641 0.03966797 6.27035156 0.04417969 7.09179688 0.04882812 C9.05732382 0.06059775 11.0228121 0.07853277 12.98828125 0.09765625 C12.98828125 0.42765625 12.98828125 0.75765625 12.98828125 1.09765625 C7.70828125 1.09765625 2.42828125 1.09765625 -3.01171875 1.09765625 C-3.01171875 1.75765625 -3.01171875 2.41765625 -3.01171875 3.09765625 C-1.69171875 3.42765625 -0.37171875 3.75765625 0.98828125 4.09765625 C-0.10484375 4.40703125 -1.19796875 4.71640625 -2.32421875 5.03515625 C-4.56579869 5.68103522 -6.79865385 6.35996795 -9.01171875 7.09765625 C-9.01171875 4.09765625 -9.01171875 4.09765625 -7.01171875 1.09765625 C-4.30455633 0.19526878 -2.77395107 -0.02085677 0 0 Z " fill="#363225" transform="translate(88.01171875,96.90234375)"/>
<path d="M0 0 C9.9 0 19.8 0 30 0 C30 0.33 30 0.66 30 1 C29.36908447 1.02505615 28.73816895 1.0501123 28.08813477 1.07592773 C25.24603175 1.19154137 22.40428917 1.31442316 19.5625 1.4375 C18.07266602 1.49647461 18.07266602 1.49647461 16.55273438 1.55664062 C15.13637695 1.61948242 15.13637695 1.61948242 13.69140625 1.68359375 C12.81685791 1.72025146 11.94230957 1.75690918 11.04125977 1.79467773 C9.0072598 1.78181066 9.0072598 1.78181066 8 3 C6.00041636 3.04080783 3.99954746 3.04254356 2 3 C2 2.34 2 1.68 2 1 C1.34 0.67 0.68 0.34 0 0 Z " fill="#4C3D2F" transform="translate(100,153)"/>
<path d="M0 0 C0.99 0 1.98 0 3 0 C6 6.625 6 6.625 6 10 C5.34 10 4.68 10 4 10 C4 9.01 4 8.02 4 7 C1.13275314 7.57344937 0.1385485 7.8614515 -2 10 C-1.46274105 6.62294375 -0.88935377 3.303314 0 0 Z " fill="#635546" transform="translate(147,236)"/>
<path d="M0 0 C0.66 0.33 1.32 0.66 2 1 C1.690625 1.825 1.38125 2.65 1.0625 3.5 C-0.11877583 7.39126155 -0.58224168 10.96166953 -1 15 C-1.33 15 -1.66 15 -2 15 C-2.33 12.36 -2.66 9.72 -3 7 C-3.33 9.97 -3.66 12.94 -4 16 C-4.33 16 -4.66 16 -5 16 C-5.76681614 6.26995516 -5.76681614 6.26995516 -3.88671875 3.15625 C-2.5 1.8125 -2.5 1.8125 0 0 Z " fill="#5C442E" transform="translate(96,38)"/>
<path d="M0 0 C2.5 2.3125 2.5 2.3125 5 5 C5 7.93593133 4.77500573 10.76556416 4.5 13.6875 C4.4071875 14.68136719 4.314375 15.67523438 4.21875 16.69921875 C4.1465625 17.45847656 4.074375 18.21773437 4 19 C3.67 19 3.34 19 3 19 C2.87882813 18.19175781 2.75765625 17.38351563 2.6328125 16.55078125 C2.46523437 15.48214844 2.29765625 14.41351563 2.125 13.3125 C1.96257812 12.25675781 1.80015625 11.20101562 1.6328125 10.11328125 C1.10111833 7.00136449 1.10111833 7.00136449 -0.1328125 4.23046875 C-0.41898438 3.49441406 -0.70515625 2.75835937 -1 2 C-0.67 1.34 -0.34 0.68 0 0 Z " fill="#423A2E" transform="translate(158,101)"/>
<path d="M0 0 C4.29 0 8.58 0 13 0 C12.67 0.99 12.34 1.98 12 3 C8.50970582 4.47666292 4.72563614 4.07164685 1 4 C0.67 2.68 0.34 1.36 0 0 Z " fill="#D4C7AE" transform="translate(210,218)"/>
<path d="M0 0 C-1 2 -1 2 -4.1875 3.125 C-7.63749602 3.91680237 -10.484293 4.1714979 -14 4 C-13.34 3.67 -12.68 3.34 -12 3 C-12 2.01 -12 1.02 -12 0 C-3.42857143 -1.28571429 -3.42857143 -1.28571429 0 0 Z " fill="#34271B" transform="translate(155,168)"/>
<path d="M0 0 C4.875 0.875 4.875 0.875 6 2 C7.34747084 2.23075082 8.70377565 2.41153063 10.0625 2.5625 C11.361875 2.706875 12.66125 2.85125 14 3 C14 3.33 14 3.66 14 4 C11.69 4 9.38 4 7 4 C7 4.66 7 5.32 7 6 C7.99 6.33 8.98 6.66 10 7 C5.85463326 6.5289356 3.0080208 6.0080208 0 3 C0 2.01 0 1.02 0 0 Z " fill="#4A3B2D" transform="translate(107,138)"/>
<path d="M0 0 C2.52480693 2.52480693 2.55738633 4.13823034 3.125 7.625 C3.29257813 8.62789062 3.46015625 9.63078125 3.6328125 10.6640625 C3.75398438 11.43492188 3.87515625 12.20578125 4 13 C3.01 13.33 2.02 13.66 1 14 C-0.75417412 9.50492881 -1.28362108 5.8215583 -1 1 C-0.67 0.67 -0.34 0.34 0 0 Z " fill="#312518" transform="translate(82,65)"/>
<path d="M0 0 C3.96 0 7.92 0 12 0 C12 0.99 12 1.98 12 3 C8.32589215 4.17571451 4.83070817 4.07366746 1 4 C0.67 2.68 0.34 1.36 0 0 Z " fill="#D6C9B0" transform="translate(118,218)"/>
<path d="M0 0 C0.598125 0.226875 1.19625 0.45375 1.8125 0.6875 C1.8125 1.6775 1.8125 2.6675 1.8125 3.6875 C0.4925 3.3575 -0.8275 3.0275 -2.1875 2.6875 C-2.1875 4.3375 -2.1875 5.9875 -2.1875 7.6875 C-0.5375 7.6875 1.1125 7.6875 2.8125 7.6875 C2.4825 8.6775 2.1525 9.6675 1.8125 10.6875 C-0.5625 10.875 -0.5625 10.875 -3.1875 10.6875 C-5.34252531 7.45496204 -5.65606135 6.43599077 -5.1875 2.6875 C-3.54664326 0.22621489 -2.98587219 -0.42655317 0 0 Z " fill="#5D4F41" transform="translate(52.1875,235.3125)"/>
<path d="M0 0 C2.93167219 0.31693753 4.58982661 0.63225834 6.8125 2.625 C8.41568775 5.8313755 8.20379759 8.46750852 8 12 C7.67 12 7.34 12 7 12 C7 10.02 7 8.04 7 6 C6.34 6 5.68 6 5 6 C5 7.65 5 9.3 5 11 C4.67 11 4.34 11 4 11 C3.566875 9.2984375 3.566875 9.2984375 3.125 7.5625 C2.75375 6.386875 2.3825 5.21125 2 4 C1.34 3.67 0.68 3.34 0 3 C0 2.01 0 1.02 0 0 Z " fill="#493321" transform="translate(115,41)"/>
<path d="M0 0 C0.66 0 1.32 0 2 0 C2.05447047 1.41623216 2.09300508 2.83308191 2.125 4.25 C2.14820313 5.03890625 2.17140625 5.8278125 2.1953125 6.640625 C1.97767636 9.26966951 1.46290812 10.81048189 0 13 C-0.99 13.33 -1.98 13.66 -3 14 C-2.28547412 9.23649415 -1.20465156 4.65798604 0 0 Z " fill="#372316" transform="translate(132,46)"/>
<path d="M0 0 C0.66 0 1.32 0 2 0 C2 0.99 2 1.98 2 3 C3.32 3.33 4.64 3.66 6 4 C6 6.31 6 8.62 6 11 C5.67 11 5.34 11 5 11 C5 9.02 5 7.04 5 5 C4.01 5 3.02 5 2 5 C2 6.98 2 8.96 2 11 C1.34 11 0.68 11 0 11 C0 7.37 0 3.74 0 0 Z " fill="#5B4E40" transform="translate(57,235)"/>
<path d="M0 0 C1.67542976 0.28604898 3.34385343 0.61781233 5 1 C5 1.99 5 2.98 5 4 C3.35 4 1.7 4 0 4 C0 4.66 0 5.32 0 6 C1.65 6 3.3 6 5 6 C4.67 6.66 4.34 7.32 4 8 C2.35 7.67 0.7 7.34 -1 7 C-1.04254356 5.00045254 -1.04080783 2.99958364 -1 1 C-0.67 0.67 -0.34 0.34 0 0 Z " fill="#67594B" transform="translate(131,238)"/>
<path d="M0 0 C0 4.51319676 -1.95036593 8.0471343 -4 12 C-4.99 12 -5.98 12 -7 12 C-6.67566492 6.64847115 -3.50295176 3.71719957 0 0 Z " fill="#403427" transform="translate(92,173)"/>
<path d="M0 0 C1.45823212 -0.0270043 2.91660675 -0.04639787 4.375 -0.0625 C5.18710938 -0.07410156 5.99921875 -0.08570313 6.8359375 -0.09765625 C9 0 9 0 11 1 C11 1.66 11 2.32 11 3 C6.38 3 1.76 3 -3 3 C-2.01 2.67 -1.02 2.34 0 2 C0 1.34 0 0.68 0 0 Z " fill="#342416" transform="translate(91,153)"/>
<path d="M0 0 C0.33 0 0.66 0 1 0 C1.06058594 0.88042969 1.12117188 1.76085937 1.18359375 2.66796875 C1.26738281 3.82941406 1.35117188 4.99085938 1.4375 6.1875 C1.51871094 7.33605469 1.59992188 8.48460937 1.68359375 9.66796875 C1.95403812 12.51598171 2.37521747 15.21210482 3 18 C2.67 18 2.34 18 2 18 C1.67 19.98 1.34 21.96 1 24 C0.67 24 0.34 24 0 24 C0 16.08 0 8.16 0 0 Z " fill="#E0D5BF" transform="translate(110,201)"/>
<path d="M0 0 C1.66611905 -0.042721 3.33382885 -0.04063832 5 0 C6 1 6 1 6.0625 4.5625 C6.041875 5.696875 6.02125 6.83125 6 8 C5.67 8 5.34 8 5 8 C5 6.02 5 4.04 5 2 C4.01 2 3.02 2 2 2 C2 3.98 2 5.96 2 8 C1.34 8 0.68 8 0 8 C0 5.36 0 2.72 0 0 Z " fill="#6A5C4E" transform="translate(191,238)"/>
<path d="M0 0 C0.33 0 0.66 0 1 0 C2.7578125 5.95703125 2.7578125 5.95703125 3 8 C2.01 9.485 2.01 9.485 1 11 C-0.32 10.67 -1.64 10.34 -3 10 C-2.01 6.7 -1.02 3.4 0 0 Z " fill="#45392B" transform="translate(161,136)"/>
<path d="M0 0 C1.32 0.33 2.64 0.66 4 1 C5.1577506 4.47325181 5.06866652 7.36067448 5 11 C4.67 11 4.34 11 4 11 C4 9.02 4 7.04 4 5 C3.34 5 2.68 5 2 5 C2 6.65 2 8.3 2 10 C1.67 10 1.34 10 1 10 C0.67 6.7 0.34 3.4 0 0 Z " fill="#4D3828" transform="translate(130,41)"/>
<path d="M0 0 C0.66 0 1.32 0 2 0 C2.125 6.75 2.125 6.75 1 9 C-0.32 9.33 -1.64 9.66 -3 10 C-2.01 6.7 -1.02 3.4 0 0 Z " fill="#332619" transform="translate(173,145)"/>
<path d="M0 0 C0.66 0.33 1.32 0.66 2 1 C2 1.66 2 2.32 2 3 C2.66 3.33 3.32 3.66 4 4 C3.34 4 2.68 4 2 4 C2 4.66 2 5.32 2 6 C1.01 5.67 0.02 5.34 -1 5 C-2.89212737 4.77820215 -4.78884472 4.59385985 -6.6875 4.4375 C-7.68136719 4.35371094 -8.67523438 4.26992187 -9.69921875 4.18359375 C-10.83810547 4.09271484 -10.83810547 4.09271484 -12 4 C-12 3.67 -12 3.34 -12 3 C-11.21753906 2.95101562 -10.43507813 2.90203125 -9.62890625 2.8515625 C-8.61699219 2.77679688 -7.60507813 2.70203125 -6.5625 2.625 C-5.55316406 2.55539063 -4.54382813 2.48578125 -3.50390625 2.4140625 C-2.26447266 2.20910156 -2.26447266 2.20910156 -1 2 C-0.67 1.34 -0.34 0.68 0 0 Z " fill="#473223" transform="translate(110,79)"/>
<path d="M0 0 C3 1 3 1 4 3 C4.66 2.34 5.32 1.68 6 1 C5.67 2.98 5.34 4.96 5 7 C4.01 7.33 3.02 7.66 2 8 C1.34 5.36 0.68 2.72 0 0 Z " fill="#665849" transform="translate(122,238)"/>
<path d="M0 0 C2.31 0.66 4.62 1.32 7 2 C6.67 2.99 6.34 3.98 6 5 C1.25 4.25 1.25 4.25 -1 2 C-0.67 1.34 -0.34 0.68 0 0 Z " fill="#D1C3AC" transform="translate(192,218)"/>
<path d="M0 0 C1.98 0 3.96 0 6 0 C5.67 1.32 5.34 2.64 5 4 C3.02 4 1.04 4 -1 4 C-0.67 2.68 -0.34 1.36 0 0 Z " fill="#D6C8AE" transform="translate(58,218)"/>
<path d="M0 0 C1.65 0.33 3.3 0.66 5 1 C5.33 1.99 5.66 2.98 6 4 C3.36 4 0.72 4 -2 4 C-1.34 2.68 -0.68 1.36 0 0 Z " fill="#D2C6AE" transform="translate(212,211)"/>
<path d="M0 0 C1.65 0.33 3.3 0.66 5 1 C5.33 1.99 5.66 2.98 6 4 C3.36 4 0.72 4 -2 4 C-1.34 2.68 -0.68 1.36 0 0 Z " fill="#D2C6AE" transform="translate(120,211)"/>
<path d="M0 0 C-0.75 1.9375 -0.75 1.9375 -2 4 C-4.125 4.75 -4.125 4.75 -6 5 C-6 4.34 -6 3.68 -6 3 C-7.32 2.34 -8.64 1.68 -10 1 C-6.56484998 0.37542727 -3.50935186 0 0 0 Z " fill="#49392B" transform="translate(222,221)"/>
<path d="M0 0 C-0.75 1.9375 -0.75 1.9375 -2 4 C-4.125 4.75 -4.125 4.75 -6 5 C-6 4.01 -6 3.02 -6 2 C-7.32 1.67 -8.64 1.34 -10 1 C-6.56484998 0.37542727 -3.50935186 0 0 0 Z " fill="#453628" transform="translate(130,221)"/>
<path d="M0 0 C2 3 2 3 2 7 C1.34 7 0.68 7 0 7 C0 8.65 0 10.3 0 12 C-1.75282525 9.31920844 -2.01311136 8.13111361 -1.6875 4.875 C-1 2 -1 2 0 0 Z " fill="#3D382B" transform="translate(93,62)"/>
<path d="M0 0 C0.66 0 1.32 0 2 0 C3.04005702 3.38018531 3.08004482 6.4780279 3 10 C2.01 10 1.02 10 0 10 C0 6.7 0 3.4 0 0 Z " fill="#5A4B3D" transform="translate(73,236)"/>
<path d="M0 0 C2.76223278 2.76223278 2.57856291 5.20706617 3 9 C2.01 8.67 1.02 8.34 0 8 C-0.38063221 5.6739143 -0.71269945 3.33944736 -1 1 C-0.67 0.67 -0.34 0.34 0 0 Z " fill="#332619" transform="translate(62,146)"/>
<path d="M0 0 C2.09350689 3.4019487 2.17942163 6.05272412 2 10 C0.35 8.68 -1.3 7.36 -3 6 C-2.67 4.68 -2.34 3.36 -2 2 C-2 2.99 -2 3.98 -2 5 C-1.34 5 -0.68 5 0 5 C0 3.35 0 1.7 0 0 Z " fill="#433F31" transform="translate(57,86)"/>
<path d="M0 0 C0.66 0 1.32 0 2 0 C3.04005702 3.38018531 3.08004482 6.4780279 3 10 C2.01 9.67 1.02 9.34 0 9 C0 6.03 0 3.06 0 0 Z " fill="#605242" transform="translate(94,236)"/>
<path d="M0 0 C2.31 0 4.62 0 7 0 C7 0.66 7 1.32 7 2 C6.01 2 5.02 2 4 2 C4 4.97 4 7.94 4 11 C3.67 11 3.34 11 3 11 C3 8.03 3 5.06 3 2 C2.01 2 1.02 2 0 2 C0 1.34 0 0.68 0 0 Z " fill="#544637" transform="translate(102,235)"/>
<path d="M0 0 C2.475 0.495 2.475 0.495 5 1 C4.67 2.32 4.34 3.64 4 5 C2.68 5 1.36 5 0 5 C0 3.35 0 1.7 0 0 Z " fill="#402F23" transform="translate(181,200)"/>
<path d="M0 0 C0.66 0 1.32 0 2 0 C2.83819158 1.62249941 3.6704116 3.24808497 4.5 4.875 C4.9640625 5.77992187 5.428125 6.68484375 5.90625 7.6171875 C7 10 7 10 7 12 C6.01 12 5.02 12 4 12 C2.68 8.04 1.36 4.08 0 0 Z " fill="#CBBFA9" transform="translate(91,56)"/>
<path d="M0 0 C0.66 0.99 1.32 1.98 2 3 C1.67 3.99 1.34 4.98 1 6 C0.67 5.67 0.34 5.34 0 5 C-0.33 5.99 -0.66 6.98 -1 8 C-2.32 7.67 -3.64 7.34 -5 7 C-4.01 7 -3.02 7 -2 7 C-2 5.68 -2 4.36 -2 3 C-2.99 2.67 -3.98 2.34 -5 2 C-3.35 2 -1.7 2 0 2 C0 1.34 0 0.68 0 0 Z " fill="#BEB29B" transform="translate(146,205)"/>
<path d="M0 0 C0.33 0 0.66 0 1 0 C1.33 3.63 1.66 7.26 2 11 C1.01 10.67 0.02 10.34 -1 10 C-1.02689216 8.52093108 -1.04634621 7.04172517 -1.0625 5.5625 C-1.07410156 4.73878906 -1.08570312 3.91507813 -1.09765625 3.06640625 C-1 1 -1 1 0 0 Z " fill="#342214" transform="translate(93,44)"/>
<path d="M0 0 C-0.33 0.99 -0.66 1.98 -1 3 C-2.65 3.33 -4.3 3.66 -6 4 C-6 3.34 -6 2.68 -6 2 C-6.66 1.67 -7.32 1.34 -8 1 C-3.375 -1.125 -3.375 -1.125 0 0 Z " fill="#4B3827" transform="translate(110,29)"/>
<path d="M0 0 C2.31 0 4.62 0 7 0 C7 0.99 7 1.98 7 3 C4.36 3 1.72 3 -1 3 C-0.67 2.01 -0.34 1.02 0 0 Z " fill="#322114" transform="translate(110,28)"/>
<path d="M0 0 C1.32 0 2.64 0 4 0 C4 0.66 4 1.32 4 2 C3.34 2 2.68 2 2 2 C2 3.98 2 5.96 2 8 C1.34 8 0.68 8 0 8 C0 5.36 0 2.72 0 0 Z " fill="#5C4E40" transform="translate(110,238)"/>
<path d="M0 0 C0.33 0.66 0.66 1.32 1 2 C1.66 2 2.32 2 3 2 C3 2.66 3 3.32 3 4 C2.34 4 1.68 4 1 4 C1 5.32 1 6.64 1 8 C1.66 8 2.32 8 3 8 C3 8.66 3 9.32 3 10 C2.01 10 1.02 10 0 10 C-1.125 2.25 -1.125 2.25 0 0 Z " fill="#59493C" transform="translate(200,236)"/>
<path d="M0 0 C4.75 0.75 4.75 0.75 7 3 C3.71303767 3.79953138 2.28976808 4.09658936 -1 3 C-0.67 2.01 -0.34 1.02 0 0 Z " fill="#D7CBB1" transform="translate(194,211)"/>
<path d="M0 0 C1.67542976 0.28604898 3.34385343 0.61781233 5 1 C5 1.99 5 2.98 5 4 C3.35 4 1.7 4 0 4 C-0.33 3.01 -0.66 2.02 -1 1 C-0.67 0.67 -0.34 0.34 0 0 Z " fill="#E3D7BB" transform="translate(58,211)"/>
<path d="M0 0 C0.99 0 1.98 0 3 0 C2.5020163 3.73487777 2.12508244 5.81237635 0 9 C0 6.03 0 3.06 0 0 Z " fill="#C6B7A1" transform="translate(106,237)"/>
<path d="M0 0 C0.99 0 1.98 0 3 0 C1.60667426 3.36720387 0.0210714 4.9859524 -3 7 C-2.38722388 4.03824877 -1.74627478 2.61941217 0 0 Z " fill="#3B2615" transform="translate(101,31)"/>
<path d="M0 0 C0 0.33 0 0.66 0 1 C-1.36125 1.4021875 -1.36125 1.4021875 -2.75 1.8125 C-5.71471963 2.89576294 -7.6169754 3.98359457 -10 6 C-9.6875 4.125 -9.6875 4.125 -9 2 C-5.5647952 -0.29013653 -4.014669 -0.17842973 0 0 Z " fill="#48392C" transform="translate(63,207)"/>
<path d="M0 0 C-1.98 0.99 -1.98 0.99 -4 2 C-4 2.99 -4 3.98 -4 5 C-4.99 5 -5.98 5 -7 5 C-7.33 3.68 -7.66 2.36 -8 1 C-2.25 -1.125 -2.25 -1.125 0 0 Z " fill="#3E4034" transform="translate(161,165)"/>
<path d="M0 0 C0.33 0.99 0.66 1.98 1 3 C1.66 3.66 2.32 4.32 3 5 C-0.68754757 4.50168276 -2.60490662 3.89932357 -5 1 C-2 0 -2 0 0 0 Z " fill="#CEC2AB" transform="translate(161,239)"/>
<path d="M0 0 C1.98 0 3.96 0 6 0 C6 0.99 6 1.98 6 3 C4.02 3 2.04 3 0 3 C0 2.01 0 1.02 0 0 Z " fill="#352417" transform="translate(194,223)"/>
<path d="M0 0 C1.32 0 2.64 0 4 0 C3.67 1.32 3.34 2.64 3 4 C2.01 4 1.02 4 0 4 C-0.33 3.01 -0.66 2.02 -1 1 C-0.67 0.67 -0.34 0.34 0 0 Z " fill="#4C3E31" transform="translate(125,138)"/>
<path d="M0 0 C0.66 0.66 1.32 1.32 2 2 C0.6875 3.5 0.6875 3.5 -1 5 C-1.99 5 -2.98 5 -4 5 C-3.6875 3.0625 -3.6875 3.0625 -3 1 C-2.01 0.67 -1.02 0.34 0 0 Z " fill="#4A3626" transform="translate(119,76)"/>
</svg>
